<svg xmlns="http://www.w3.org/2000/svg" xmlns:xlink="http://www.w3.org/1999/xlink" width="250" zoomAndPan="magnify" viewBox="0 0 187.5 74.999997" height="100" preserveAspectRatio="xMidYMid meet" version="1.0"><defs><clipPath id="5e40661493"><path d="M 0 0.101562 L 187 0.101562 L 187 74.898438 L 0 74.898438 Z M 0 0.101562 " clip-rule="nonzero"/></clipPath><clipPath id="1f9bd42f69"><path d="M 43.074219 58 L 120 58 L 120 63 L 43.074219 63 Z M 43.074219 58 " clip-rule="nonzero"/></clipPath><clipPath id="6648a2add5"><path d="M 43.074219 11 L 120 11 L 120 60 L 43.074219 60 Z M 43.074219 11 " clip-rule="nonzero"/></clipPath><clipPath id="ac604340c4"><path d="M 43.074219 59 L 120 59 L 120 63 L 43.074219 63 Z M 43.074219 59 " clip-rule="nonzero"/></clipPath><clipPath id="db4b8ae6ec"><path d="M 48 7.578125 L 79 7.578125 L 79 45 L 48 45 Z M 48 7.578125 " clip-rule="nonzero"/></clipPath><clipPath id="47c1b13733"><path d="M 105 71 L 125 71 L 125 74.898438 L 105 74.898438 Z M 105 71 " clip-rule="nonzero"/></clipPath><clipPath id="9317438a74"><path d="M 105 70 L 125 70 L 125 74.898438 L 105 74.898438 Z M 105 70 " clip-rule="nonzero"/></clipPath><clipPath id="8971ea2f28"><path d="M 107 71 L 108 71 L 108 74.898438 L 107 74.898438 Z M 107 71 " clip-rule="nonzero"/></clipPath><clipPath id="3f1bdd4852"><path d="M 109 71 L 110 71 L 110 74.898438 L 109 74.898438 Z M 109 71 " clip-rule="nonzero"/></clipPath><clipPath id="03f3b04fbb"><path d="M 111 71 L 112 71 L 112 74.898438 L 111 74.898438 Z M 111 71 " clip-rule="nonzero"/></clipPath><clipPath id="5fd3e8d8e5"><path d="M 113 71 L 114 71 L 114 74.898438 L 113 74.898438 Z M 113 71 " clip-rule="nonzero"/></clipPath><clipPath id="c2fd5336e0"><path d="M 114 71 L 116 71 L 116 74.898438 L 114 74.898438 Z M 114 71 " clip-rule="nonzero"/></clipPath><clipPath id="e742f5c477"><path d="M 116 71 L 118 71 L 118 74.898438 L 116 74.898438 Z M 116 71 " clip-rule="nonzero"/></clipPath><clipPath id="8e513a40e6"><path d="M 118 71 L 119 71 L 119 74.898438 L 118 74.898438 Z M 118 71 " clip-rule="nonzero"/></clipPath><clipPath id="76ae18969d"><path d="M 120 71 L 121 71 L 121 74.898438 L 120 74.898438 Z M 120 71 " clip-rule="nonzero"/></clipPath><clipPath id="e4679f4b62"><path d="M 122 71 L 123 71 L 123 74.898438 L 122 74.898438 Z M 122 71 " clip-rule="nonzero"/></clipPath><clipPath id="f5ba4e7e17"><path d="M 117 59 L 133 59 L 133 74.898438 L 117 74.898438 Z M 117 59 " clip-rule="nonzero"/></clipPath><clipPath id="c51aaf136a"><path d="M 58 52 L 77 52 L 77 74.898438 L 58 74.898438 Z M 58 52 " clip-rule="nonzero"/></clipPath><clipPath id="a65f2b072f"><path d="M 62 52 L 100 52 L 100 74.898438 L 62 74.898438 Z M 62 52 " clip-rule="nonzero"/></clipPath><clipPath id="fcea68b218"><path d="M 61 52 L 100 52 L 100 74.898438 L 61 74.898438 Z M 61 52 " clip-rule="nonzero"/></clipPath><clipPath id="2781f6ca55"><path d="M 43.074219 74 L 59 74 L 59 74.898438 L 43.074219 74.898438 Z M 43.074219 74 " clip-rule="nonzero"/></clipPath><clipPath id="ac0684b17c"><path d="M 134 7.578125 L 140 7.578125 L 140 20 L 134 20 Z M 134 7.578125 " clip-rule="nonzero"/></clipPath></defs><g clip-path="url(#5e40661493)"><path fill="#ffffff" d="M 0 0.101562 L 187 0.101562 L 187 74.898438 L 0 74.898438 Z M 0 0.101562 " fill-opacity="1" fill-rule="nonzero"/><path fill="#ffffff" d="M 0 0.101562 L 187 0.101562 L 187 74.898438 L 0 74.898438 Z M 0 0.101562 " fill-opacity="1" fill-rule="nonzero"/></g><g clip-path="url(#1f9bd42f69)"><path fill="#ffffff" d="M 118.269531 58.191406 C 118.15625 58.144531 43.832031 58.53125 43.832031 58.53125 C 43.738281 58.621094 43.152344 59.03125 43.152344 59.03125 L 43.152344 59.953125 C 43.152344 61.339844 44.238281 62.464844 45.578125 62.464844 L 116.878906 62.464844 C 118.214844 62.464844 119.300781 61.339844 119.300781 59.953125 L 119.300781 59.03125 C 119.300781 59.03125 118.382812 58.234375 118.269531 58.191406 " fill-opacity="1" fill-rule="nonzero"/></g><g clip-path="url(#6648a2add5)"><path fill="#ffffff" d="M 119.300781 59.03125 L 43.152344 59.03125 L 43.152344 14.597656 C 43.152344 13.144531 44.335938 11.960938 45.789062 11.960938 L 116.664062 11.960938 C 118.121094 11.960938 119.300781 13.144531 119.300781 14.597656 L 119.300781 59.03125 " fill-opacity="1" fill-rule="nonzero"/><path fill="#000000" d="M 43.234375 58.953125 L 119.222656 58.953125 L 119.222656 14.597656 C 119.222656 13.191406 118.074219 12.042969 116.664062 12.042969 L 45.789062 12.042969 C 44.382812 12.042969 43.234375 13.191406 43.234375 14.597656 Z M 119.300781 59.113281 L 43.152344 59.113281 C 43.109375 59.113281 43.074219 59.078125 43.074219 59.03125 L 43.074219 14.597656 C 43.074219 13.101562 44.292969 11.882812 45.789062 11.882812 L 116.664062 11.882812 C 118.164062 11.882812 119.382812 13.101562 119.382812 14.597656 L 119.382812 59.03125 C 119.382812 59.078125 119.347656 59.113281 119.300781 59.113281 " fill-opacity="1" fill-rule="nonzero"/></g><path fill="#000000" d="M 45.835938 56.253906 L 116.621094 56.253906 L 116.621094 14.921875 C 116.621094 14.820312 116.539062 14.738281 116.4375 14.738281 L 46.019531 14.738281 C 45.917969 14.738281 45.835938 14.820312 45.835938 14.921875 Z M 116.699219 56.417969 L 45.753906 56.417969 C 45.710938 56.417969 45.675781 56.382812 45.675781 56.335938 L 45.675781 14.921875 C 45.675781 14.730469 45.828125 14.578125 46.019531 14.578125 L 116.4375 14.578125 C 116.625 14.578125 116.78125 14.730469 116.78125 14.921875 L 116.78125 56.335938 C 116.78125 56.382812 116.746094 56.417969 116.699219 56.417969 " fill-opacity="1" fill-rule="nonzero"/><g clip-path="url(#ac604340c4)"><path fill="#000000" d="M 116.878906 62.546875 L 45.578125 62.546875 C 44.195312 62.546875 43.074219 61.382812 43.074219 59.953125 C 43.074219 59.90625 43.109375 59.871094 43.152344 59.871094 C 43.199219 59.871094 43.234375 59.90625 43.234375 59.953125 C 43.234375 61.292969 44.285156 62.382812 45.578125 62.382812 L 116.878906 62.382812 C 118.167969 62.382812 119.222656 61.292969 119.222656 59.953125 C 119.222656 59.90625 119.257812 59.871094 119.300781 59.871094 C 119.347656 59.871094 119.382812 59.90625 119.382812 59.953125 C 119.382812 61.382812 118.257812 62.546875 116.878906 62.546875 " fill-opacity="1" fill-rule="nonzero"/></g><path fill="#ffffff" d="M 92.894531 70.089844 L 69.5625 70.089844 C 68.328125 70.089844 67.328125 69.089844 67.328125 67.855469 L 67.328125 62.464844 L 95.128906 62.464844 L 95.128906 67.855469 C 95.128906 69.089844 94.125 70.089844 92.894531 70.089844 " fill-opacity="1" fill-rule="nonzero"/><path fill="#000000" d="M 67.410156 62.546875 L 67.410156 67.855469 C 67.410156 69.042969 68.375 70.007812 69.5625 70.007812 L 92.890625 70.007812 C 94.082031 70.007812 95.046875 69.042969 95.046875 67.855469 L 95.046875 62.546875 Z M 92.890625 70.171875 L 69.5625 70.171875 C 68.285156 70.171875 67.246094 69.132812 67.246094 67.855469 L 67.246094 62.464844 C 67.246094 62.417969 67.285156 62.382812 67.328125 62.382812 L 95.128906 62.382812 C 95.171875 62.382812 95.207031 62.417969 95.207031 62.464844 L 95.207031 67.855469 C 95.207031 69.132812 94.167969 70.171875 92.890625 70.171875 " fill-opacity="1" fill-rule="nonzero"/><path fill="#000000" d="M 94.089844 64.335938 L 68.363281 64.335938 C 68.320312 64.335938 68.28125 64.300781 68.28125 64.253906 C 68.28125 64.210938 68.320312 64.175781 68.363281 64.175781 L 94.089844 64.175781 C 94.136719 64.175781 94.171875 64.210938 94.171875 64.253906 C 94.171875 64.300781 94.136719 64.335938 94.089844 64.335938 " fill-opacity="1" fill-rule="nonzero"/><g clip-path="url(#db4b8ae6ec)"><path fill="#ffffff" d="M 78.019531 44.179688 L 48.367188 44.179688 L 48.367188 7.714844 L 78.019531 7.714844 L 78.019531 44.179688 " fill-opacity="1" fill-rule="nonzero"/><path fill="#000000" d="M 48.445312 44.097656 L 77.941406 44.097656 L 77.941406 7.796875 L 48.445312 7.796875 Z M 78.019531 44.261719 L 48.367188 44.261719 C 48.320312 44.261719 48.285156 44.222656 48.285156 44.179688 L 48.285156 7.714844 C 48.285156 7.671875 48.320312 7.632812 48.367188 7.632812 L 78.019531 7.632812 C 78.066406 7.632812 78.101562 7.671875 78.101562 7.714844 L 78.101562 44.179688 C 78.101562 44.222656 78.066406 44.261719 78.019531 44.261719 " fill-opacity="1" fill-rule="nonzero"/></g><path fill="#1e1e49" d="M 83.113281 49.382812 L 53.460938 49.382812 L 53.460938 12.917969 L 83.113281 12.917969 L 83.113281 49.382812 " fill-opacity="1" fill-rule="nonzero"/><path fill="#ffffff" d="M 57.109375 22.414062 L 79.46875 22.414062 L 79.46875 18.515625 L 57.109375 18.515625 Z M 79.589844 22.65625 L 56.988281 22.65625 C 56.921875 22.65625 56.867188 22.601562 56.867188 22.535156 L 56.867188 18.394531 C 56.867188 18.328125 56.921875 18.273438 56.988281 18.273438 L 79.589844 18.273438 C 79.65625 18.273438 79.710938 18.328125 79.710938 18.394531 L 79.710938 22.535156 C 79.710938 22.601562 79.65625 22.65625 79.589844 22.65625 " fill-opacity="1" fill-rule="nonzero"/><path fill="#ffffff" d="M 57.109375 31.585938 L 79.46875 31.585938 L 79.46875 24.945312 L 57.109375 24.945312 Z M 79.589844 31.828125 L 56.988281 31.828125 C 56.921875 31.828125 56.867188 31.773438 56.867188 31.707031 L 56.867188 24.824219 C 56.867188 24.757812 56.921875 24.703125 56.988281 24.703125 L 79.589844 24.703125 C 79.65625 24.703125 79.710938 24.757812 79.710938 24.824219 L 79.710938 31.707031 C 79.710938 31.773438 79.65625 31.828125 79.589844 31.828125 " fill-opacity="1" fill-rule="nonzero"/><path fill="#ffffff" d="M 71.128906 31.683594 C 71.058594 31.683594 71.007812 31.628906 71.007812 31.5625 L 71.007812 24.96875 C 71.007812 24.898438 71.058594 24.847656 71.128906 24.847656 C 71.195312 24.847656 71.25 24.898438 71.25 24.96875 L 71.25 31.5625 C 71.25 31.628906 71.195312 31.683594 71.128906 31.683594 " fill-opacity="1" fill-rule="nonzero"/><path fill="#ffffff" d="M 57.109375 35.027344 L 79.46875 35.027344 L 79.46875 28.386719 L 57.109375 28.386719 Z M 79.589844 35.269531 L 56.988281 35.269531 C 56.921875 35.269531 56.867188 35.214844 56.867188 35.148438 L 56.867188 28.265625 C 56.867188 28.199219 56.921875 28.144531 56.988281 28.144531 L 79.589844 28.144531 C 79.65625 28.144531 79.710938 28.199219 79.710938 28.265625 L 79.710938 35.148438 C 79.710938 35.214844 79.65625 35.269531 79.589844 35.269531 " fill-opacity="1" fill-rule="nonzero"/><path fill="#ffffff" d="M 71.128906 35.125 C 71.058594 35.125 71.007812 35.070312 71.007812 35.003906 L 71.007812 28.410156 C 71.007812 28.339844 71.058594 28.289062 71.128906 28.289062 C 71.195312 28.289062 71.25 28.339844 71.25 28.410156 L 71.25 35.003906 C 71.25 35.070312 71.195312 35.125 71.128906 35.125 " fill-opacity="1" fill-rule="nonzero"/><path fill="#ffffff" d="M 57.109375 38.46875 L 79.46875 38.46875 L 79.46875 31.828125 L 57.109375 31.828125 Z M 79.589844 38.710938 L 56.988281 38.710938 C 56.921875 38.710938 56.867188 38.65625 56.867188 38.589844 L 56.867188 31.707031 C 56.867188 31.636719 56.921875 31.585938 56.988281 31.585938 L 79.589844 31.585938 C 79.65625 31.585938 79.710938 31.636719 79.710938 31.707031 L 79.710938 38.589844 C 79.710938 38.65625 79.65625 38.710938 79.589844 38.710938 " fill-opacity="1" fill-rule="nonzero"/><path fill="#ffffff" d="M 71.128906 38.566406 C 71.058594 38.566406 71.007812 38.511719 71.007812 38.445312 L 71.007812 31.851562 C 71.007812 31.78125 71.058594 31.730469 71.128906 31.730469 C 71.195312 31.730469 71.25 31.78125 71.25 31.851562 L 71.25 38.445312 C 71.25 38.511719 71.195312 38.566406 71.128906 38.566406 " fill-opacity="1" fill-rule="nonzero"/><path fill="#ffffff" d="M 57.109375 44.058594 L 71.007812 44.058594 L 71.007812 41.738281 L 57.109375 41.738281 Z M 71.128906 44.300781 L 56.988281 44.300781 C 56.921875 44.300781 56.867188 44.246094 56.867188 44.179688 L 56.867188 41.617188 C 56.867188 41.550781 56.921875 41.496094 56.988281 41.496094 L 71.128906 41.496094 C 71.195312 41.496094 71.25 41.550781 71.25 41.617188 L 71.25 44.179688 C 71.25 44.246094 71.195312 44.300781 71.128906 44.300781 " fill-opacity="1" fill-rule="nonzero"/><path fill="#ffffff" d="M 79.238281 44.332031 L 79.238281 43.972656 C 79.03125 43.96875 78.816406 43.902344 78.691406 43.8125 L 78.777344 43.574219 C 78.90625 43.660156 79.09375 43.726562 79.292969 43.726562 C 79.546875 43.726562 79.71875 43.582031 79.71875 43.375 C 79.71875 43.179688 79.578125 43.054688 79.3125 42.949219 C 78.949219 42.804688 78.722656 42.640625 78.722656 42.328125 C 78.722656 42.03125 78.933594 41.804688 79.265625 41.75 L 79.265625 41.386719 L 79.488281 41.386719 L 79.488281 41.734375 C 79.703125 41.742188 79.847656 41.800781 79.953125 41.859375 L 79.863281 42.097656 C 79.789062 42.054688 79.640625 41.976562 79.410156 41.976562 C 79.136719 41.976562 79.03125 42.140625 79.03125 42.285156 C 79.03125 42.472656 79.164062 42.566406 79.476562 42.695312 C 79.84375 42.84375 80.03125 43.03125 80.03125 43.351562 C 80.03125 43.632812 79.835938 43.898438 79.464844 43.960938 L 79.464844 44.332031 L 79.238281 44.332031 " fill-opacity="1" fill-rule="nonzero"/><path fill="#ffffff" d="M 77.21875 44.332031 L 77.21875 43.972656 C 77.011719 43.96875 76.796875 43.902344 76.671875 43.8125 L 76.757812 43.574219 C 76.886719 43.660156 77.074219 43.726562 77.273438 43.726562 C 77.527344 43.726562 77.699219 43.582031 77.699219 43.375 C 77.699219 43.179688 77.5625 43.054688 77.296875 42.949219 C 76.929688 42.804688 76.703125 42.640625 76.703125 42.328125 C 76.703125 42.03125 76.914062 41.804688 77.246094 41.75 L 77.246094 41.386719 L 77.46875 41.386719 L 77.46875 41.734375 C 77.683594 41.742188 77.828125 41.800781 77.933594 41.859375 L 77.84375 42.097656 C 77.769531 42.054688 77.621094 41.976562 77.390625 41.976562 C 77.117188 41.976562 77.011719 42.140625 77.011719 42.285156 C 77.011719 42.472656 77.144531 42.566406 77.457031 42.695312 C 77.824219 42.84375 78.011719 43.03125 78.011719 43.351562 C 78.011719 43.632812 77.816406 43.898438 77.445312 43.960938 L 77.445312 44.332031 L 77.21875 44.332031 " fill-opacity="1" fill-rule="nonzero"/><path fill="#ffffff" d="M 75.203125 44.332031 L 75.203125 43.972656 C 74.992188 43.96875 74.777344 43.902344 74.652344 43.8125 L 74.738281 43.574219 C 74.867188 43.660156 75.054688 43.726562 75.253906 43.726562 C 75.511719 43.726562 75.683594 43.582031 75.683594 43.375 C 75.683594 43.179688 75.542969 43.054688 75.277344 42.949219 C 74.910156 42.804688 74.683594 42.640625 74.683594 42.328125 C 74.683594 42.03125 74.898438 41.804688 75.226562 41.75 L 75.226562 41.386719 L 75.449219 41.386719 L 75.449219 41.734375 C 75.664062 41.742188 75.8125 41.800781 75.914062 41.859375 L 75.824219 42.097656 C 75.75 42.054688 75.601562 41.976562 75.375 41.976562 C 75.097656 41.976562 74.992188 42.140625 74.992188 42.285156 C 74.992188 42.472656 75.125 42.566406 75.4375 42.695312 C 75.808594 42.84375 75.992188 43.03125 75.992188 43.351562 C 75.992188 43.632812 75.796875 43.898438 75.425781 43.960938 L 75.425781 44.332031 L 75.203125 44.332031 " fill-opacity="1" fill-rule="nonzero"/><path fill="#000000" d="M 113.992188 22.195312 L 106.585938 22.195312 C 106.539062 22.195312 106.503906 22.160156 106.503906 22.113281 C 106.503906 22.070312 106.539062 22.035156 106.585938 22.035156 L 113.992188 22.035156 C 114.039062 22.035156 114.074219 22.070312 114.074219 22.113281 C 114.074219 22.160156 114.039062 22.195312 113.992188 22.195312 " fill-opacity="1" fill-rule="nonzero"/><path fill="#000000" d="M 103.152344 22.195312 L 99.773438 22.195312 C 99.730469 22.195312 99.695312 22.160156 99.695312 22.113281 C 99.695312 22.070312 99.730469 22.035156 99.773438 22.035156 L 103.152344 22.035156 C 103.199219 22.035156 103.234375 22.070312 103.234375 22.113281 C 103.234375 22.160156 103.199219 22.195312 103.152344 22.195312 " fill-opacity="1" fill-rule="nonzero"/><path fill="#000000" d="M 113.992188 20.167969 L 111.332031 20.167969 C 111.289062 20.167969 111.25 20.132812 111.25 20.089844 C 111.25 20.042969 111.289062 20.007812 111.332031 20.007812 L 113.992188 20.007812 C 114.039062 20.007812 114.074219 20.042969 114.074219 20.089844 C 114.074219 20.132812 114.039062 20.167969 113.992188 20.167969 " fill-opacity="1" fill-rule="nonzero"/><path fill="#000000" d="M 108.335938 20.167969 L 99.773438 20.167969 C 99.730469 20.167969 99.695312 20.132812 99.695312 20.089844 C 99.695312 20.042969 99.730469 20.007812 99.773438 20.007812 L 108.335938 20.007812 C 108.382812 20.007812 108.417969 20.042969 108.417969 20.089844 C 108.417969 20.132812 108.382812 20.167969 108.335938 20.167969 " fill-opacity="1" fill-rule="nonzero"/><path fill="#000000" d="M 113.992188 18.144531 L 106.585938 18.144531 C 106.539062 18.144531 106.503906 18.109375 106.503906 18.0625 C 106.503906 18.019531 106.539062 17.984375 106.585938 17.984375 L 113.992188 17.984375 C 114.039062 17.984375 114.074219 18.019531 114.074219 18.0625 C 114.074219 18.109375 114.039062 18.144531 113.992188 18.144531 " fill-opacity="1" fill-rule="nonzero"/><path fill="#000000" d="M 103.152344 18.144531 L 99.773438 18.144531 C 99.730469 18.144531 99.695312 18.109375 99.695312 18.0625 C 99.695312 18.019531 99.730469 17.984375 99.773438 17.984375 L 103.152344 17.984375 C 103.199219 17.984375 103.234375 18.019531 103.234375 18.0625 C 103.234375 18.109375 103.199219 18.144531 103.152344 18.144531 " fill-opacity="1" fill-rule="nonzero"/><path fill="#000000" d="M 106.585938 31.230469 L 85.152344 31.230469 C 85.109375 31.230469 85.070312 31.195312 85.070312 31.152344 C 85.070312 31.105469 85.109375 31.070312 85.152344 31.070312 L 106.503906 31.070312 L 106.503906 23.625 C 106.503906 23.582031 106.539062 23.542969 106.585938 23.542969 C 106.628906 23.542969 106.667969 23.582031 106.667969 23.625 L 106.667969 31.152344 C 106.667969 31.195312 106.628906 31.230469 106.585938 31.230469 " fill-opacity="1" fill-rule="nonzero"/><path fill="#ffffff" d="M 123.226562 56.730469 L 106.863281 56.730469 C 106.296875 56.730469 105.839844 56.269531 105.839844 55.707031 L 105.839844 54.007812 C 105.839844 53.445312 106.296875 52.984375 106.863281 52.984375 L 123.226562 52.984375 C 123.789062 52.984375 124.246094 53.445312 124.246094 54.007812 L 124.246094 55.707031 C 124.246094 56.269531 123.789062 56.730469 123.226562 56.730469 " fill-opacity="1" fill-rule="nonzero"/><path fill="#000000" d="M 106.863281 53.066406 C 106.34375 53.066406 105.921875 53.488281 105.921875 54.007812 L 105.921875 55.707031 C 105.921875 56.226562 106.34375 56.648438 106.863281 56.648438 L 123.226562 56.648438 C 123.742188 56.648438 124.167969 56.226562 124.167969 55.707031 L 124.167969 54.007812 C 124.167969 53.488281 123.742188 53.066406 123.226562 53.066406 Z M 123.226562 56.808594 L 106.863281 56.808594 C 106.253906 56.808594 105.761719 56.316406 105.761719 55.707031 L 105.761719 54.007812 C 105.761719 53.398438 106.253906 52.90625 106.863281 52.90625 L 123.226562 52.90625 C 123.832031 52.90625 124.328125 53.398438 124.328125 54.007812 L 124.328125 55.707031 C 124.328125 56.316406 123.832031 56.808594 123.226562 56.808594 " fill-opacity="1" fill-rule="nonzero"/><path fill="#e2eaff" d="M 107.515625 56.292969 C 107.46875 56.292969 107.433594 56.257812 107.433594 56.214844 L 107.433594 53.5 C 107.433594 53.457031 107.46875 53.421875 107.515625 53.421875 C 107.558594 53.421875 107.59375 53.457031 107.59375 53.5 L 107.59375 56.214844 C 107.59375 56.257812 107.558594 56.292969 107.515625 56.292969 " fill-opacity="1" fill-rule="nonzero"/><path fill="#e2eaff" d="M 109.398438 56.292969 C 109.351562 56.292969 109.316406 56.257812 109.316406 56.214844 L 109.316406 53.5 C 109.316406 53.457031 109.351562 53.421875 109.398438 53.421875 C 109.441406 53.421875 109.476562 53.457031 109.476562 53.5 L 109.476562 56.214844 C 109.476562 56.257812 109.441406 56.292969 109.398438 56.292969 " fill-opacity="1" fill-rule="nonzero"/><path fill="#e2eaff" d="M 111.28125 56.292969 C 111.234375 56.292969 111.199219 56.257812 111.199219 56.214844 L 111.199219 53.5 C 111.199219 53.457031 111.234375 53.421875 111.28125 53.421875 C 111.324219 53.421875 111.359375 53.457031 111.359375 53.5 L 111.359375 56.214844 C 111.359375 56.257812 111.324219 56.292969 111.28125 56.292969 " fill-opacity="1" fill-rule="nonzero"/><path fill="#e2eaff" d="M 113.160156 56.292969 C 113.117188 56.292969 113.082031 56.257812 113.082031 56.214844 L 113.082031 53.5 C 113.082031 53.457031 113.117188 53.421875 113.160156 53.421875 C 113.207031 53.421875 113.242188 53.457031 113.242188 53.5 L 113.242188 56.214844 C 113.242188 56.257812 113.207031 56.292969 113.160156 56.292969 " fill-opacity="1" fill-rule="nonzero"/><path fill="#e2eaff" d="M 115.042969 56.292969 C 115 56.292969 114.964844 56.257812 114.964844 56.214844 L 114.964844 53.5 C 114.964844 53.457031 115 53.421875 115.042969 53.421875 C 115.089844 53.421875 115.125 53.457031 115.125 53.5 L 115.125 56.214844 C 115.125 56.257812 115.089844 56.292969 115.042969 56.292969 " fill-opacity="1" fill-rule="nonzero"/><path fill="#e2eaff" d="M 116.925781 56.292969 C 116.882812 56.292969 116.847656 56.257812 116.847656 56.214844 L 116.847656 53.5 C 116.847656 53.457031 116.882812 53.421875 116.925781 53.421875 C 116.972656 53.421875 117.007812 53.457031 117.007812 53.5 L 117.007812 56.214844 C 117.007812 56.257812 116.972656 56.292969 116.925781 56.292969 " fill-opacity="1" fill-rule="nonzero"/><path fill="#e2eaff" d="M 118.808594 56.292969 C 118.765625 56.292969 118.726562 56.257812 118.726562 56.214844 L 118.726562 53.5 C 118.726562 53.457031 118.765625 53.421875 118.808594 53.421875 C 118.855469 53.421875 118.890625 53.457031 118.890625 53.5 L 118.890625 56.214844 C 118.890625 56.257812 118.855469 56.292969 118.808594 56.292969 " fill-opacity="1" fill-rule="nonzero"/><path fill="#e2eaff" d="M 120.691406 56.292969 C 120.648438 56.292969 120.609375 56.257812 120.609375 56.214844 L 120.609375 53.5 C 120.609375 53.457031 120.648438 53.421875 120.691406 53.421875 C 120.738281 53.421875 120.773438 53.457031 120.773438 53.5 L 120.773438 56.214844 C 120.773438 56.257812 120.738281 56.292969 120.691406 56.292969 " fill-opacity="1" fill-rule="nonzero"/><path fill="#e2eaff" d="M 122.574219 56.292969 C 122.527344 56.292969 122.492188 56.257812 122.492188 56.214844 L 122.492188 53.5 C 122.492188 53.457031 122.527344 53.421875 122.574219 53.421875 C 122.617188 53.421875 122.65625 53.457031 122.65625 53.5 L 122.65625 56.214844 C 122.65625 56.257812 122.617188 56.292969 122.574219 56.292969 " fill-opacity="1" fill-rule="nonzero"/><path fill="#ffffff" d="M 123.226562 61.242188 L 106.863281 61.242188 C 106.296875 61.242188 105.839844 60.785156 105.839844 60.21875 L 105.839844 58.523438 C 105.839844 57.957031 106.296875 57.5 106.863281 57.5 L 123.226562 57.5 C 123.789062 57.5 124.246094 57.957031 124.246094 58.523438 L 124.246094 60.21875 C 124.246094 60.785156 123.789062 61.242188 123.226562 61.242188 " fill-opacity="1" fill-rule="nonzero"/><path fill="#000000" d="M 106.863281 57.582031 C 106.34375 57.582031 105.921875 58.003906 105.921875 58.523438 L 105.921875 60.21875 C 105.921875 60.738281 106.34375 61.160156 106.863281 61.160156 L 123.226562 61.160156 C 123.742188 61.160156 124.167969 60.738281 124.167969 60.21875 L 124.167969 58.523438 C 124.167969 58.003906 123.742188 57.582031 123.226562 57.582031 Z M 123.226562 61.324219 L 106.863281 61.324219 C 106.253906 61.324219 105.761719 60.828125 105.761719 60.21875 L 105.761719 58.523438 C 105.761719 57.914062 106.253906 57.417969 106.863281 57.417969 L 123.226562 57.417969 C 123.832031 57.417969 124.328125 57.914062 124.328125 58.523438 L 124.328125 60.21875 C 124.328125 60.828125 123.832031 61.324219 123.226562 61.324219 " fill-opacity="1" fill-rule="nonzero"/><path fill="#e2eaff" d="M 107.515625 60.808594 C 107.46875 60.808594 107.433594 60.773438 107.433594 60.726562 L 107.433594 58.015625 C 107.433594 57.96875 107.46875 57.933594 107.515625 57.933594 C 107.558594 57.933594 107.59375 57.96875 107.59375 58.015625 L 107.59375 60.726562 C 107.59375 60.773438 107.558594 60.808594 107.515625 60.808594 " fill-opacity="1" fill-rule="nonzero"/><path fill="#e2eaff" d="M 109.398438 60.808594 C 109.351562 60.808594 109.316406 60.773438 109.316406 60.726562 L 109.316406 58.015625 C 109.316406 57.96875 109.351562 57.933594 109.398438 57.933594 C 109.441406 57.933594 109.476562 57.96875 109.476562 58.015625 L 109.476562 60.726562 C 109.476562 60.773438 109.441406 60.808594 109.398438 60.808594 " fill-opacity="1" fill-rule="nonzero"/><path fill="#e2eaff" d="M 111.28125 60.808594 C 111.234375 60.808594 111.199219 60.773438 111.199219 60.726562 L 111.199219 58.015625 C 111.199219 57.96875 111.234375 57.933594 111.28125 57.933594 C 111.324219 57.933594 111.359375 57.96875 111.359375 58.015625 L 111.359375 60.726562 C 111.359375 60.773438 111.324219 60.808594 111.28125 60.808594 " fill-opacity="1" fill-rule="nonzero"/><path fill="#e2eaff" d="M 113.160156 60.808594 C 113.117188 60.808594 113.082031 60.773438 113.082031 60.726562 L 113.082031 58.015625 C 113.082031 57.96875 113.117188 57.933594 113.160156 57.933594 C 113.207031 57.933594 113.242188 57.96875 113.242188 58.015625 L 113.242188 60.726562 C 113.242188 60.773438 113.207031 60.808594 113.160156 60.808594 " fill-opacity="1" fill-rule="nonzero"/><path fill="#e2eaff" d="M 115.042969 60.808594 C 115 60.808594 114.964844 60.773438 114.964844 60.726562 L 114.964844 58.015625 C 114.964844 57.96875 115 57.933594 115.042969 57.933594 C 115.089844 57.933594 115.125 57.96875 115.125 58.015625 L 115.125 60.726562 C 115.125 60.773438 115.089844 60.808594 115.042969 60.808594 " fill-opacity="1" fill-rule="nonzero"/><path fill="#e2eaff" d="M 116.925781 60.808594 C 116.882812 60.808594 116.847656 60.773438 116.847656 60.726562 L 116.847656 58.015625 C 116.847656 57.96875 116.882812 57.933594 116.925781 57.933594 C 116.972656 57.933594 117.007812 57.96875 117.007812 58.015625 L 117.007812 60.726562 C 117.007812 60.773438 116.972656 60.808594 116.925781 60.808594 " fill-opacity="1" fill-rule="nonzero"/><path fill="#e2eaff" d="M 118.808594 60.808594 C 118.765625 60.808594 118.726562 60.773438 118.726562 60.726562 L 118.726562 58.015625 C 118.726562 57.96875 118.765625 57.933594 118.808594 57.933594 C 118.855469 57.933594 118.890625 57.96875 118.890625 58.015625 L 118.890625 60.726562 C 118.890625 60.773438 118.855469 60.808594 118.808594 60.808594 " fill-opacity="1" fill-rule="nonzero"/><path fill="#e2eaff" d="M 120.691406 60.808594 C 120.648438 60.808594 120.609375 60.773438 120.609375 60.726562 L 120.609375 58.015625 C 120.609375 57.96875 120.648438 57.933594 120.691406 57.933594 C 120.738281 57.933594 120.773438 57.96875 120.773438 58.015625 L 120.773438 60.726562 C 120.773438 60.773438 120.738281 60.808594 120.691406 60.808594 " fill-opacity="1" fill-rule="nonzero"/><path fill="#e2eaff" d="M 122.574219 60.808594 C 122.527344 60.808594 122.492188 60.773438 122.492188 60.726562 L 122.492188 58.015625 C 122.492188 57.96875 122.527344 57.933594 122.574219 57.933594 C 122.617188 57.933594 122.65625 57.96875 122.65625 58.015625 L 122.65625 60.726562 C 122.65625 60.773438 122.617188 60.808594 122.574219 60.808594 " fill-opacity="1" fill-rule="nonzero"/><path fill="#ffffff" d="M 123.226562 65.757812 L 106.863281 65.757812 C 106.296875 65.757812 105.839844 65.296875 105.839844 64.734375 L 105.839844 63.035156 C 105.839844 62.472656 106.296875 62.011719 106.863281 62.011719 L 123.226562 62.011719 C 123.789062 62.011719 124.246094 62.472656 124.246094 63.035156 L 124.246094 64.734375 C 124.246094 65.296875 123.789062 65.757812 123.226562 65.757812 " fill-opacity="1" fill-rule="nonzero"/><path fill="#000000" d="M 106.863281 62.09375 C 106.34375 62.09375 105.921875 62.515625 105.921875 63.035156 L 105.921875 64.734375 C 105.921875 65.253906 106.34375 65.675781 106.863281 65.675781 L 123.226562 65.675781 C 123.742188 65.675781 124.167969 65.253906 124.167969 64.734375 L 124.167969 63.035156 C 124.167969 62.515625 123.742188 62.09375 123.226562 62.09375 Z M 123.226562 65.835938 L 106.863281 65.835938 C 106.253906 65.835938 105.761719 65.339844 105.761719 64.734375 L 105.761719 63.035156 C 105.761719 62.425781 106.253906 61.933594 106.863281 61.933594 L 123.226562 61.933594 C 123.832031 61.933594 124.328125 62.425781 124.328125 63.035156 L 124.328125 64.734375 C 124.328125 65.339844 123.832031 65.835938 123.226562 65.835938 " fill-opacity="1" fill-rule="nonzero"/><path fill="#e2eaff" d="M 107.515625 65.320312 C 107.46875 65.320312 107.433594 65.285156 107.433594 65.242188 L 107.433594 62.527344 C 107.433594 62.484375 107.46875 62.445312 107.515625 62.445312 C 107.558594 62.445312 107.59375 62.484375 107.59375 62.527344 L 107.59375 65.242188 C 107.59375 65.285156 107.558594 65.320312 107.515625 65.320312 " fill-opacity="1" fill-rule="nonzero"/><path fill="#e2eaff" d="M 109.398438 65.320312 C 109.351562 65.320312 109.316406 65.285156 109.316406 65.242188 L 109.316406 62.527344 C 109.316406 62.484375 109.351562 62.445312 109.398438 62.445312 C 109.441406 62.445312 109.476562 62.484375 109.476562 62.527344 L 109.476562 65.242188 C 109.476562 65.285156 109.441406 65.320312 109.398438 65.320312 " fill-opacity="1" fill-rule="nonzero"/><path fill="#e2eaff" d="M 111.28125 65.320312 C 111.234375 65.320312 111.199219 65.285156 111.199219 65.242188 L 111.199219 62.527344 C 111.199219 62.484375 111.234375 62.445312 111.28125 62.445312 C 111.324219 62.445312 111.359375 62.484375 111.359375 62.527344 L 111.359375 65.242188 C 111.359375 65.285156 111.324219 65.320312 111.28125 65.320312 " fill-opacity="1" fill-rule="nonzero"/><path fill="#e2eaff" d="M 113.160156 65.320312 C 113.117188 65.320312 113.082031 65.285156 113.082031 65.242188 L 113.082031 62.527344 C 113.082031 62.484375 113.117188 62.445312 113.160156 62.445312 C 113.207031 62.445312 113.242188 62.484375 113.242188 62.527344 L 113.242188 65.242188 C 113.242188 65.285156 113.207031 65.320312 113.160156 65.320312 " fill-opacity="1" fill-rule="nonzero"/><path fill="#e2eaff" d="M 115.042969 65.320312 C 115 65.320312 114.964844 65.285156 114.964844 65.242188 L 114.964844 62.527344 C 114.964844 62.484375 115 62.445312 115.042969 62.445312 C 115.089844 62.445312 115.125 62.484375 115.125 62.527344 L 115.125 65.242188 C 115.125 65.285156 115.089844 65.320312 115.042969 65.320312 " fill-opacity="1" fill-rule="nonzero"/><path fill="#e2eaff" d="M 116.925781 65.320312 C 116.882812 65.320312 116.847656 65.285156 116.847656 65.242188 L 116.847656 62.527344 C 116.847656 62.484375 116.882812 62.445312 116.925781 62.445312 C 116.972656 62.445312 117.007812 62.484375 117.007812 62.527344 L 117.007812 65.242188 C 117.007812 65.285156 116.972656 65.320312 116.925781 65.320312 " fill-opacity="1" fill-rule="nonzero"/><path fill="#e2eaff" d="M 118.808594 65.320312 C 118.765625 65.320312 118.726562 65.285156 118.726562 65.242188 L 118.726562 62.527344 C 118.726562 62.484375 118.765625 62.445312 118.808594 62.445312 C 118.855469 62.445312 118.890625 62.484375 118.890625 62.527344 L 118.890625 65.242188 C 118.890625 65.285156 118.855469 65.320312 118.808594 65.320312 " fill-opacity="1" fill-rule="nonzero"/><path fill="#e2eaff" d="M 120.691406 65.320312 C 120.648438 65.320312 120.609375 65.285156 120.609375 65.242188 L 120.609375 62.527344 C 120.609375 62.484375 120.648438 62.445312 120.691406 62.445312 C 120.738281 62.445312 120.773438 62.484375 120.773438 62.527344 L 120.773438 65.242188 C 120.773438 65.285156 120.738281 65.320312 120.691406 65.320312 " fill-opacity="1" fill-rule="nonzero"/><path fill="#e2eaff" d="M 122.574219 65.320312 C 122.527344 65.320312 122.492188 65.285156 122.492188 65.242188 L 122.492188 62.527344 C 122.492188 62.484375 122.527344 62.445312 122.574219 62.445312 C 122.617188 62.445312 122.65625 62.484375 122.65625 62.527344 L 122.65625 65.242188 C 122.65625 65.285156 122.617188 65.320312 122.574219 65.320312 " fill-opacity="1" fill-rule="nonzero"/><path fill="#ffffff" d="M 123.226562 70.269531 L 106.863281 70.269531 C 106.296875 70.269531 105.839844 69.8125 105.839844 69.246094 L 105.839844 67.550781 C 105.839844 66.984375 106.296875 66.527344 106.863281 66.527344 L 123.226562 66.527344 C 123.789062 66.527344 124.246094 66.984375 124.246094 67.550781 L 124.246094 69.246094 C 124.246094 69.8125 123.789062 70.269531 123.226562 70.269531 " fill-opacity="1" fill-rule="nonzero"/><path fill="#000000" d="M 106.863281 66.609375 C 106.34375 66.609375 105.921875 67.03125 105.921875 67.550781 L 105.921875 69.246094 C 105.921875 69.765625 106.34375 70.1875 106.863281 70.1875 L 123.226562 70.1875 C 123.742188 70.1875 124.167969 69.765625 124.167969 69.246094 L 124.167969 67.550781 C 124.167969 67.03125 123.742188 66.609375 123.226562 66.609375 Z M 123.226562 70.351562 L 106.863281 70.351562 C 106.253906 70.351562 105.761719 69.855469 105.761719 69.246094 L 105.761719 67.550781 C 105.761719 66.941406 106.253906 66.445312 106.863281 66.445312 L 123.226562 66.445312 C 123.832031 66.445312 124.328125 66.941406 124.328125 67.550781 L 124.328125 69.246094 C 124.328125 69.855469 123.832031 70.351562 123.226562 70.351562 " fill-opacity="1" fill-rule="nonzero"/><path fill="#e2eaff" d="M 107.515625 69.835938 C 107.46875 69.835938 107.433594 69.800781 107.433594 69.753906 L 107.433594 67.042969 C 107.433594 66.996094 107.46875 66.960938 107.515625 66.960938 C 107.558594 66.960938 107.59375 66.996094 107.59375 67.042969 L 107.59375 69.753906 C 107.59375 69.800781 107.558594 69.835938 107.515625 69.835938 " fill-opacity="1" fill-rule="nonzero"/><path fill="#e2eaff" d="M 109.398438 69.835938 C 109.351562 69.835938 109.316406 69.800781 109.316406 69.753906 L 109.316406 67.042969 C 109.316406 66.996094 109.351562 66.960938 109.398438 66.960938 C 109.441406 66.960938 109.476562 66.996094 109.476562 67.042969 L 109.476562 69.753906 C 109.476562 69.800781 109.441406 69.835938 109.398438 69.835938 " fill-opacity="1" fill-rule="nonzero"/><path fill="#e2eaff" d="M 111.28125 69.835938 C 111.234375 69.835938 111.199219 69.800781 111.199219 69.753906 L 111.199219 67.042969 C 111.199219 66.996094 111.234375 66.960938 111.28125 66.960938 C 111.324219 66.960938 111.359375 66.996094 111.359375 67.042969 L 111.359375 69.753906 C 111.359375 69.800781 111.324219 69.835938 111.28125 69.835938 " fill-opacity="1" fill-rule="nonzero"/><path fill="#e2eaff" d="M 113.160156 69.835938 C 113.117188 69.835938 113.082031 69.800781 113.082031 69.753906 L 113.082031 67.042969 C 113.082031 66.996094 113.117188 66.960938 113.160156 66.960938 C 113.207031 66.960938 113.242188 66.996094 113.242188 67.042969 L 113.242188 69.753906 C 113.242188 69.800781 113.207031 69.835938 113.160156 69.835938 " fill-opacity="1" fill-rule="nonzero"/><path fill="#e2eaff" d="M 115.042969 69.835938 C 115 69.835938 114.964844 69.800781 114.964844 69.753906 L 114.964844 67.042969 C 114.964844 66.996094 115 66.960938 115.042969 66.960938 C 115.089844 66.960938 115.125 66.996094 115.125 67.042969 L 115.125 69.753906 C 115.125 69.800781 115.089844 69.835938 115.042969 69.835938 " fill-opacity="1" fill-rule="nonzero"/><path fill="#e2eaff" d="M 116.925781 69.835938 C 116.882812 69.835938 116.847656 69.800781 116.847656 69.753906 L 116.847656 67.042969 C 116.847656 66.996094 116.882812 66.960938 116.925781 66.960938 C 116.972656 66.960938 117.007812 66.996094 117.007812 67.042969 L 117.007812 69.753906 C 117.007812 69.800781 116.972656 69.835938 116.925781 69.835938 " fill-opacity="1" fill-rule="nonzero"/><path fill="#e2eaff" d="M 118.808594 69.835938 C 118.765625 69.835938 118.726562 69.800781 118.726562 69.753906 L 118.726562 67.042969 C 118.726562 66.996094 118.765625 66.960938 118.808594 66.960938 C 118.855469 66.960938 118.890625 66.996094 118.890625 67.042969 L 118.890625 69.753906 C 118.890625 69.800781 118.855469 69.835938 118.808594 69.835938 " fill-opacity="1" fill-rule="nonzero"/><path fill="#e2eaff" d="M 120.691406 69.835938 C 120.648438 69.835938 120.609375 69.800781 120.609375 69.753906 L 120.609375 67.042969 C 120.609375 66.996094 120.648438 66.960938 120.691406 66.960938 C 120.738281 66.960938 120.773438 66.996094 120.773438 67.042969 L 120.773438 69.753906 C 120.773438 69.800781 120.738281 69.835938 120.691406 69.835938 " fill-opacity="1" fill-rule="nonzero"/><path fill="#e2eaff" d="M 122.574219 69.835938 C 122.527344 69.835938 122.492188 69.800781 122.492188 69.753906 L 122.492188 67.042969 C 122.492188 66.996094 122.527344 66.960938 122.574219 66.960938 C 122.617188 66.960938 122.65625 66.996094 122.65625 67.042969 L 122.65625 69.753906 C 122.65625 69.800781 122.617188 69.835938 122.574219 69.835938 " fill-opacity="1" fill-rule="nonzero"/><g clip-path="url(#47c1b13733)"><path fill="#ffffff" d="M 123.226562 74.785156 L 106.863281 74.785156 C 106.296875 74.785156 105.839844 74.324219 105.839844 73.761719 L 105.839844 72.0625 C 105.839844 71.5 106.296875 71.039062 106.863281 71.039062 L 123.226562 71.039062 C 123.789062 71.039062 124.246094 71.5 124.246094 72.0625 L 124.246094 73.761719 C 124.246094 74.324219 123.789062 74.785156 123.226562 74.785156 " fill-opacity="1" fill-rule="nonzero"/></g><g clip-path="url(#9317438a74)"><path fill="#000000" d="M 106.863281 71.121094 C 106.34375 71.121094 105.921875 71.542969 105.921875 72.0625 L 105.921875 73.761719 C 105.921875 74.28125 106.34375 74.703125 106.863281 74.703125 L 123.226562 74.703125 C 123.742188 74.703125 124.167969 74.28125 124.167969 73.761719 L 124.167969 72.0625 C 124.167969 71.542969 123.742188 71.121094 123.226562 71.121094 Z M 123.226562 74.863281 L 106.863281 74.863281 C 106.253906 74.863281 105.761719 74.367188 105.761719 73.761719 L 105.761719 72.0625 C 105.761719 71.453125 106.253906 70.960938 106.863281 70.960938 L 123.226562 70.960938 C 123.832031 70.960938 124.328125 71.453125 124.328125 72.0625 L 124.328125 73.761719 C 124.328125 74.367188 123.832031 74.863281 123.226562 74.863281 " fill-opacity="1" fill-rule="nonzero"/></g><g clip-path="url(#8971ea2f28)"><path fill="#e2eaff" d="M 107.515625 74.347656 C 107.46875 74.347656 107.433594 74.3125 107.433594 74.269531 L 107.433594 71.554688 C 107.433594 71.511719 107.46875 71.472656 107.515625 71.472656 C 107.558594 71.472656 107.59375 71.511719 107.59375 71.554688 L 107.59375 74.269531 C 107.59375 74.3125 107.558594 74.347656 107.515625 74.347656 " fill-opacity="1" fill-rule="nonzero"/></g><g clip-path="url(#3f1bdd4852)"><path fill="#e2eaff" d="M 109.398438 74.347656 C 109.351562 74.347656 109.316406 74.3125 109.316406 74.269531 L 109.316406 71.554688 C 109.316406 71.511719 109.351562 71.472656 109.398438 71.472656 C 109.441406 71.472656 109.476562 71.511719 109.476562 71.554688 L 109.476562 74.269531 C 109.476562 74.3125 109.441406 74.347656 109.398438 74.347656 " fill-opacity="1" fill-rule="nonzero"/></g><g clip-path="url(#03f3b04fbb)"><path fill="#e2eaff" d="M 111.28125 74.347656 C 111.234375 74.347656 111.199219 74.3125 111.199219 74.269531 L 111.199219 71.554688 C 111.199219 71.511719 111.234375 71.472656 111.28125 71.472656 C 111.324219 71.472656 111.359375 71.511719 111.359375 71.554688 L 111.359375 74.269531 C 111.359375 74.3125 111.324219 74.347656 111.28125 74.347656 " fill-opacity="1" fill-rule="nonzero"/></g><g clip-path="url(#5fd3e8d8e5)"><path fill="#e2eaff" d="M 113.160156 74.347656 C 113.117188 74.347656 113.082031 74.3125 113.082031 74.269531 L 113.082031 71.554688 C 113.082031 71.511719 113.117188 71.472656 113.160156 71.472656 C 113.207031 71.472656 113.242188 71.511719 113.242188 71.554688 L 113.242188 74.269531 C 113.242188 74.3125 113.207031 74.347656 113.160156 74.347656 " fill-opacity="1" fill-rule="nonzero"/></g><g clip-path="url(#c2fd5336e0)"><path fill="#e2eaff" d="M 115.042969 74.347656 C 115 74.347656 114.964844 74.3125 114.964844 74.269531 L 114.964844 71.554688 C 114.964844 71.511719 115 71.472656 115.042969 71.472656 C 115.089844 71.472656 115.125 71.511719 115.125 71.554688 L 115.125 74.269531 C 115.125 74.3125 115.089844 74.347656 115.042969 74.347656 " fill-opacity="1" fill-rule="nonzero"/></g><g clip-path="url(#e742f5c477)"><path fill="#e2eaff" d="M 116.925781 74.347656 C 116.882812 74.347656 116.847656 74.3125 116.847656 74.269531 L 116.847656 71.554688 C 116.847656 71.511719 116.882812 71.472656 116.925781 71.472656 C 116.972656 71.472656 117.007812 71.511719 117.007812 71.554688 L 117.007812 74.269531 C 117.007812 74.3125 116.972656 74.347656 116.925781 74.347656 " fill-opacity="1" fill-rule="nonzero"/></g><g clip-path="url(#8e513a40e6)"><path fill="#e2eaff" d="M 118.808594 74.347656 C 118.765625 74.347656 118.726562 74.3125 118.726562 74.269531 L 118.726562 71.554688 C 118.726562 71.511719 118.765625 71.472656 118.808594 71.472656 C 118.855469 71.472656 118.890625 71.511719 118.890625 71.554688 L 118.890625 74.269531 C 118.890625 74.3125 118.855469 74.347656 118.808594 74.347656 " fill-opacity="1" fill-rule="nonzero"/></g><g clip-path="url(#76ae18969d)"><path fill="#e2eaff" d="M 120.691406 74.347656 C 120.648438 74.347656 120.609375 74.3125 120.609375 74.269531 L 120.609375 71.554688 C 120.609375 71.511719 120.648438 71.472656 120.691406 71.472656 C 120.738281 71.472656 120.773438 71.511719 120.773438 71.554688 L 120.773438 74.269531 C 120.773438 74.3125 120.738281 74.347656 120.691406 74.347656 " fill-opacity="1" fill-rule="nonzero"/></g><g clip-path="url(#e4679f4b62)"><path fill="#e2eaff" d="M 122.574219 74.347656 C 122.527344 74.347656 122.492188 74.3125 122.492188 74.269531 L 122.492188 71.554688 C 122.492188 71.511719 122.527344 71.472656 122.574219 71.472656 C 122.617188 71.472656 122.65625 71.511719 122.65625 71.554688 L 122.65625 74.269531 C 122.65625 74.3125 122.617188 74.347656 122.574219 74.347656 " fill-opacity="1" fill-rule="nonzero"/></g><g clip-path="url(#f5ba4e7e17)"><path fill="#1e1e49" d="M 132.824219 67.214844 C 132.824219 71.394531 129.4375 74.785156 125.257812 74.785156 C 121.078125 74.785156 117.6875 71.394531 117.6875 67.214844 C 117.6875 63.035156 121.078125 59.644531 125.257812 59.644531 C 129.4375 59.644531 132.824219 63.035156 132.824219 67.214844 " fill-opacity="1" fill-rule="nonzero"/></g><path fill="#ffffff" d="M 125.257812 61.34375 C 122.019531 61.34375 119.386719 63.976562 119.386719 67.214844 C 119.386719 70.449219 122.019531 73.085938 125.257812 73.085938 C 128.492188 73.085938 131.125 70.449219 131.125 67.214844 C 131.125 63.976562 128.492188 61.34375 125.257812 61.34375 Z M 125.257812 73.246094 C 121.929688 73.246094 119.222656 70.539062 119.222656 67.214844 C 119.222656 63.886719 121.929688 61.183594 125.257812 61.183594 C 128.582031 61.183594 131.289062 63.886719 131.289062 67.214844 C 131.289062 70.539062 128.582031 73.246094 125.257812 73.246094 " fill-opacity="1" fill-rule="nonzero"/><path fill="#ffffff" d="M 124.867188 71.914062 L 124.867188 70.757812 C 124.203125 70.746094 123.515625 70.539062 123.113281 70.253906 L 123.390625 69.488281 C 123.800781 69.761719 124.398438 69.980469 125.039062 69.980469 C 125.851562 69.980469 126.402344 69.511719 126.402344 68.859375 C 126.402344 68.226562 125.953125 67.839844 125.109375 67.496094 C 123.9375 67.035156 123.21875 66.511719 123.21875 65.515625 C 123.21875 64.5625 123.894531 63.839844 124.945312 63.667969 L 124.945312 62.511719 L 125.65625 62.511719 L 125.65625 63.625 C 126.34375 63.648438 126.8125 63.832031 127.144531 64.023438 L 126.859375 64.78125 C 126.617188 64.644531 126.148438 64.390625 125.417969 64.390625 C 124.535156 64.390625 124.203125 64.917969 124.203125 65.375 C 124.203125 65.972656 124.625 66.269531 125.621094 66.679688 C 126.800781 67.164062 127.398438 67.757812 127.398438 68.777344 C 127.398438 69.683594 126.769531 70.53125 125.589844 70.722656 L 125.589844 71.914062 L 124.867188 71.914062 " fill-opacity="1" fill-rule="nonzero"/><path fill="#ffffff" d="M 132.988281 43.433594 L 124.636719 44.546875 L 121.3125 46.183594 C 120.273438 49.902344 129.589844 49.679688 129.589844 49.679688 L 124.730469 55.789062 C 124.261719 56.375 124.195312 57.183594 124.566406 57.835938 C 125.589844 59.628906 127.75 62.5 128.859375 63.941406 C 129.132812 64.296875 129.699219 64.175781 129.800781 63.734375 L 130.382812 61.246094 L 137.179688 49.75 C 138.972656 46.714844 136.472656 42.953125 132.988281 43.433594 " fill-opacity="1" fill-rule="nonzero"/><path fill="#000000" d="M 132.988281 43.433594 Z M 129.589844 49.597656 C 129.621094 49.597656 129.648438 49.617188 129.660156 49.644531 C 129.675781 49.671875 129.671875 49.707031 129.652344 49.730469 L 124.792969 55.839844 C 124.34375 56.402344 124.28125 57.171875 124.636719 57.796875 C 125.644531 59.566406 127.753906 62.375 128.921875 63.890625 C 129.03125 64.03125 129.203125 64.09375 129.378906 64.058594 C 129.550781 64.019531 129.679688 63.890625 129.722656 63.71875 L 130.304688 61.226562 C 130.308594 61.21875 130.308594 61.210938 130.316406 61.203125 L 137.113281 49.707031 C 137.925781 48.328125 137.882812 46.644531 136.996094 45.3125 C 136.109375 43.984375 134.578125 43.296875 133 43.515625 L 124.660156 44.625 L 121.382812 46.242188 C 121.234375 46.800781 121.328125 47.296875 121.65625 47.722656 C 123.214844 49.726562 129.523438 49.601562 129.585938 49.597656 C 129.585938 49.597656 129.589844 49.597656 129.589844 49.597656 Z M 129.277344 64.230469 C 129.089844 64.230469 128.914062 64.144531 128.796875 63.988281 C 127.625 62.46875 125.507812 59.65625 124.496094 57.875 C 124.109375 57.195312 124.175781 56.355469 124.667969 55.738281 L 129.417969 49.761719 C 128.367188 49.773438 123.011719 49.722656 121.53125 47.820312 C 121.160156 47.34375 121.0625 46.785156 121.234375 46.164062 C 121.242188 46.140625 121.257812 46.121094 121.277344 46.113281 L 124.601562 44.476562 C 124.609375 44.472656 124.617188 44.46875 124.628906 44.46875 L 132.976562 43.355469 C 134.617188 43.128906 136.210938 43.84375 137.128906 45.222656 C 138.050781 46.609375 138.097656 48.359375 137.25 49.789062 L 130.460938 61.277344 L 129.878906 63.753906 C 129.824219 63.988281 129.644531 64.164062 129.410156 64.214844 C 129.367188 64.226562 129.324219 64.230469 129.277344 64.230469 " fill-opacity="1" fill-rule="nonzero"/><path fill="#000000" d="M 129.851562 61.167969 C 129.832031 61.167969 129.808594 61.160156 129.792969 61.140625 C 128.128906 59.277344 126.816406 57.15625 125.890625 54.835938 C 125.875 54.796875 125.894531 54.75 125.933594 54.730469 C 125.976562 54.714844 126.023438 54.734375 126.039062 54.777344 C 126.960938 57.082031 128.261719 59.1875 129.914062 61.035156 C 129.941406 61.066406 129.941406 61.117188 129.90625 61.148438 C 129.890625 61.164062 129.871094 61.167969 129.851562 61.167969 " fill-opacity="1" fill-rule="nonzero"/><path fill="#ffffff" d="M 120.480469 47.289062 L 127.515625 47.113281 C 130.902344 47.027344 134.007812 48.996094 135.378906 52.101562 C 137.632812 57.191406 141.144531 64.664062 143.632812 67.726562 C 143.925781 68.085938 143.628906 68.617188 143.167969 68.558594 L 136.140625 67.632812 C 135.003906 67.484375 134.003906 66.808594 133.441406 65.8125 L 126.980469 54.339844 C 126.980469 54.339844 114.035156 54.964844 115.183594 52.398438 C 116.328125 49.832031 120.480469 47.289062 120.480469 47.289062 " fill-opacity="1" fill-rule="nonzero"/><path fill="#000000" d="M 126.980469 54.257812 C 127.007812 54.257812 127.035156 54.273438 127.050781 54.300781 L 133.511719 65.773438 C 134.0625 66.742188 135.046875 67.410156 136.152344 67.554688 L 143.179688 68.476562 C 143.394531 68.507812 143.542969 68.382812 143.613281 68.261719 C 143.679688 68.136719 143.707031 67.945312 143.570312 67.777344 C 141.128906 64.773438 137.730469 57.613281 135.304688 52.132812 C 133.941406 49.046875 130.882812 47.109375 127.515625 47.191406 L 120.503906 47.371094 C 120.203125 47.558594 116.339844 50.003906 115.253906 52.433594 C 115.160156 52.648438 115.171875 52.839844 115.292969 53.019531 C 116.472656 54.746094 126.871094 54.265625 126.976562 54.257812 C 126.976562 54.257812 126.976562 54.257812 126.980469 54.257812 Z M 143.242188 68.644531 C 143.214844 68.644531 143.1875 68.640625 143.160156 68.636719 L 136.128906 67.714844 C 134.976562 67.5625 133.945312 66.867188 133.371094 65.851562 L 126.933594 54.421875 C 126.050781 54.464844 116.359375 54.867188 115.15625 53.109375 C 115.003906 52.886719 114.988281 52.636719 115.109375 52.367188 C 116.25 49.804688 120.394531 47.246094 120.4375 47.21875 C 120.449219 47.214844 120.464844 47.210938 120.476562 47.207031 L 127.511719 47.03125 C 127.585938 47.03125 127.65625 47.027344 127.730469 47.027344 C 131.074219 47.027344 134.09375 48.988281 135.453125 52.066406 C 137.875 57.539062 141.265625 64.6875 143.695312 67.675781 C 143.851562 67.867188 143.875 68.121094 143.753906 68.339844 C 143.644531 68.53125 143.453125 68.644531 143.242188 68.644531 " fill-opacity="1" fill-rule="nonzero"/><path fill="#000000" d="M 129.589844 54.429688 L 127.332031 54.421875 C 127.289062 54.421875 127.253906 54.386719 127.253906 54.339844 C 127.253906 54.296875 127.289062 54.261719 127.332031 54.261719 L 129.589844 54.269531 C 129.632812 54.269531 129.667969 54.304688 129.667969 54.351562 C 129.667969 54.394531 129.632812 54.429688 129.589844 54.429688 " fill-opacity="1" fill-rule="nonzero"/><path fill="#000000" d="M 141.777344 66.175781 C 141.773438 66.175781 141.769531 66.175781 141.761719 66.171875 L 133.285156 64.710938 C 133.238281 64.703125 133.210938 64.660156 133.21875 64.617188 C 133.226562 64.574219 133.269531 64.542969 133.3125 64.550781 L 141.789062 66.015625 C 141.835938 66.023438 141.863281 66.0625 141.855469 66.109375 C 141.851562 66.148438 141.816406 66.175781 141.777344 66.175781 " fill-opacity="1" fill-rule="nonzero"/><path fill="#ffffff" d="M 124.773438 44.460938 L 122.492188 47.230469 L 121.101562 47.230469 C 121.101562 47.230469 117.296875 50.804688 117.023438 54.25 C 117.023438 54.25 110.15625 53.195312 112.109375 45.402344 L 121.398438 44.730469 L 124.773438 44.460938 " fill-opacity="1" fill-rule="nonzero"/><path fill="#000000" d="M 112.175781 45.476562 C 111.574219 47.921875 111.785156 49.945312 112.808594 51.488281 C 114.144531 53.5 116.476562 54.058594 116.953125 54.152344 C 117.28125 50.746094 121.007812 47.207031 121.046875 47.167969 C 121.058594 47.15625 121.082031 47.148438 121.101562 47.148438 L 122.457031 47.148438 L 124.589844 44.558594 L 121.402344 44.8125 Z M 117.023438 54.328125 C 117.019531 54.328125 117.015625 54.328125 117.011719 54.328125 C 116.984375 54.324219 114.203125 53.875 112.675781 51.578125 C 111.617188 49.984375 111.402344 47.898438 112.03125 45.378906 C 112.042969 45.347656 112.070312 45.324219 112.105469 45.320312 L 121.390625 44.648438 L 124.765625 44.382812 C 124.796875 44.378906 124.828125 44.394531 124.84375 44.425781 C 124.859375 44.453125 124.855469 44.488281 124.835938 44.511719 L 122.554688 47.28125 C 122.539062 47.300781 122.519531 47.308594 122.492188 47.308594 L 121.132812 47.308594 C 120.816406 47.613281 117.359375 51.019531 117.105469 54.253906 C 117.101562 54.277344 117.09375 54.296875 117.074219 54.3125 C 117.058594 54.324219 117.042969 54.328125 117.023438 54.328125 " fill-opacity="1" fill-rule="nonzero"/><path fill="#000000" d="M 115.417969 52.894531 C 115.414062 52.894531 115.410156 52.894531 115.40625 52.894531 C 115.359375 52.886719 115.332031 52.847656 115.335938 52.800781 C 115.585938 51.105469 116.300781 49.515625 117.40625 48.207031 C 117.671875 47.890625 118.003906 47.539062 118.4375 47.335938 C 118.976562 47.082031 119.589844 47.09375 120.132812 47.101562 C 120.179688 47.101562 120.214844 47.140625 120.210938 47.183594 C 120.210938 47.226562 120.175781 47.261719 120.128906 47.261719 C 119.605469 47.253906 119.007812 47.242188 118.507812 47.480469 C 118.101562 47.671875 117.785156 48.007812 117.53125 48.308594 C 116.460938 49.578125 115.738281 51.183594 115.496094 52.824219 C 115.492188 52.867188 115.457031 52.894531 115.417969 52.894531 " fill-opacity="1" fill-rule="nonzero"/><path fill="#ffffff" d="M 128.394531 35.132812 C 128.808594 34.617188 129.085938 34.015625 129.355469 33.609375 C 129.453125 33.464844 129.421875 33.269531 129.285156 33.160156 C 129.136719 33.046875 128.925781 33.070312 128.8125 33.214844 L 128.308594 33.859375 L 129.050781 32.46875 C 129.144531 32.296875 129.097656 32.078125 128.941406 31.960938 C 128.753906 31.820312 128.492188 31.863281 128.363281 32.058594 L 127.613281 33.195312 L 128.433594 31.625 C 128.554688 31.390625 128.460938 31.097656 128.222656 30.984375 C 127.984375 30.871094 127.703125 30.972656 127.59375 31.210938 L 126.855469 32.8125 L 126.601562 32.457031 C 126.535156 32.359375 126.433594 32.285156 126.316406 32.253906 L 125.679688 32.070312 C 125.5 32.015625 125.304688 32.066406 125.167969 32.195312 L 124.769531 32.585938 C 124.601562 32.753906 124.648438 33.035156 124.863281 33.140625 C 125 33.210938 125.160156 33.179688 125.265625 33.070312 C 125.5 32.816406 125.925781 32.925781 126.007812 33.265625 L 126.066406 33.5 L 126.039062 33.65625 C 125.921875 34.132812 125.660156 34.363281 125.109375 34.152344 L 124.789062 34.011719 L 124.960938 33.527344 C 125.027344 33.335938 124.9375 33.128906 124.75 33.050781 C 124.574219 32.972656 124.371094 33.042969 124.273438 33.210938 L 123.824219 34 C 123.738281 34.144531 123.714844 34.339844 123.816406 34.472656 C 124.148438 34.90625 124.746094 35.53125 124.910156 36.261719 C 125.28125 37.914062 124.9375 39.890625 124.9375 39.890625 C 124.9375 39.890625 122.585938 34.914062 121.539062 36.207031 C 120.492188 37.496094 122.574219 44.386719 122.574219 44.386719 C 122.574219 44.386719 124.535156 45.335938 126.140625 45.335938 C 129.828125 45.332031 129.15625 41.257812 128.148438 37.191406 C 128.09375 36.980469 127.75 35.933594 128.394531 35.132812 " fill-opacity="1" fill-rule="nonzero"/><path fill="#000000" d="M 124.890625 33.96875 L 125.140625 34.078125 C 125.363281 34.164062 125.542969 34.171875 125.675781 34.105469 C 125.808594 34.035156 125.898438 33.882812 125.960938 33.636719 L 125.984375 33.503906 L 125.929688 33.285156 C 125.894531 33.152344 125.800781 33.058594 125.671875 33.023438 C 125.542969 32.992188 125.414062 33.027344 125.324219 33.125 C 125.246094 33.207031 125.148438 33.25 125.042969 33.257812 C 125.070312 33.351562 125.074219 33.453125 125.039062 33.554688 Z M 122.640625 44.332031 C 122.898438 44.453125 124.679688 45.253906 126.136719 45.253906 C 126.140625 45.253906 126.140625 45.253906 126.140625 45.253906 C 127.113281 45.253906 127.800781 44.972656 128.25 44.402344 C 129.371094 42.964844 128.746094 39.9375 128.070312 37.210938 C 128.066406 37.199219 128.058594 37.179688 128.054688 37.15625 C 127.96875 36.835938 127.703125 35.863281 128.332031 35.082031 C 128.59375 34.753906 128.804688 34.386719 128.988281 34.0625 C 129.09375 33.882812 129.191406 33.710938 129.289062 33.5625 C 129.359375 33.453125 129.335938 33.304688 129.234375 33.222656 C 129.179688 33.179688 129.113281 33.164062 129.046875 33.171875 C 128.980469 33.179688 128.917969 33.210938 128.878906 33.265625 L 128.375 33.910156 C 128.347656 33.945312 128.300781 33.953125 128.265625 33.929688 C 128.230469 33.90625 128.21875 33.859375 128.238281 33.824219 L 128.980469 32.433594 C 129.054688 32.292969 129.019531 32.121094 128.890625 32.023438 C 128.820312 31.96875 128.730469 31.949219 128.644531 31.964844 C 128.554688 31.980469 128.480469 32.027344 128.429688 32.101562 L 127.679688 33.238281 C 127.65625 33.273438 127.609375 33.285156 127.574219 33.261719 C 127.535156 33.242188 127.523438 33.195312 127.542969 33.15625 L 128.363281 31.585938 C 128.410156 31.492188 128.421875 31.386719 128.386719 31.285156 C 128.351562 31.183594 128.28125 31.101562 128.1875 31.058594 C 128.09375 31.011719 127.988281 31.007812 127.886719 31.042969 C 127.789062 31.078125 127.710938 31.148438 127.667969 31.242188 L 126.929688 32.84375 C 126.917969 32.871094 126.890625 32.886719 126.863281 32.890625 C 126.835938 32.894531 126.804688 32.882812 126.789062 32.859375 L 126.535156 32.503906 C 126.476562 32.421875 126.390625 32.359375 126.296875 32.332031 L 125.65625 32.148438 C 125.503906 32.101562 125.339844 32.144531 125.222656 32.253906 L 124.824219 32.644531 C 124.765625 32.703125 124.738281 32.789062 124.753906 32.875 C 124.761719 32.914062 124.773438 32.949219 124.796875 32.980469 C 124.851562 33.007812 124.902344 33.042969 124.941406 33.085938 C 125.035156 33.113281 125.136719 33.085938 125.207031 33.015625 C 125.335938 32.875 125.527344 32.816406 125.714844 32.867188 C 125.898438 32.917969 126.039062 33.058594 126.085938 33.246094 L 126.144531 33.480469 C 126.148438 33.492188 126.148438 33.503906 126.144531 33.515625 L 126.117188 33.671875 C 126.046875 33.96875 125.925781 34.15625 125.75 34.246094 C 125.574219 34.339844 125.355469 34.332031 125.078125 34.226562 L 124.757812 34.085938 C 124.71875 34.066406 124.699219 34.023438 124.714844 33.984375 L 124.886719 33.5 C 124.917969 33.402344 124.902344 33.300781 124.84375 33.222656 C 124.839844 33.21875 124.832031 33.21875 124.828125 33.214844 C 124.777344 33.1875 124.730469 33.15625 124.695312 33.113281 C 124.5625 33.070312 124.414062 33.125 124.34375 33.25 L 123.890625 34.039062 C 123.828125 34.152344 123.796875 34.316406 123.882812 34.425781 C 123.9375 34.496094 124 34.574219 124.066406 34.65625 C 124.394531 35.0625 124.847656 35.621094 124.988281 36.246094 C 125.359375 37.894531 125.019531 39.886719 125.015625 39.90625 C 125.011719 39.941406 124.984375 39.96875 124.949219 39.972656 C 124.910156 39.976562 124.878906 39.957031 124.863281 39.925781 C 124.847656 39.890625 123.09375 36.210938 122 36.078125 C 121.84375 36.058594 121.714844 36.117188 121.601562 36.257812 C 120.628906 37.453125 122.484375 43.804688 122.640625 44.332031 Z M 126.136719 45.417969 C 124.53125 45.417969 122.617188 44.5 122.539062 44.460938 C 122.519531 44.453125 122.503906 44.433594 122.496094 44.410156 C 122.410156 44.128906 120.414062 37.464844 121.476562 36.15625 C 121.625 35.972656 121.808594 35.890625 122.019531 35.917969 C 123.042969 36.039062 124.476562 38.78125 124.894531 39.621094 C 124.972656 39.035156 125.117188 37.550781 124.832031 36.28125 C 124.699219 35.691406 124.277344 35.175781 123.941406 34.757812 C 123.875 34.675781 123.808594 34.597656 123.753906 34.523438 C 123.640625 34.375 123.640625 34.15625 123.753906 33.957031 L 124.203125 33.171875 C 124.289062 33.023438 124.441406 32.9375 124.601562 32.9375 C 124.597656 32.925781 124.597656 32.914062 124.59375 32.902344 C 124.570312 32.765625 124.613281 32.628906 124.710938 32.527344 L 125.113281 32.140625 C 125.269531 31.988281 125.496094 31.929688 125.703125 31.992188 L 126.339844 32.175781 C 126.472656 32.214844 126.589844 32.296875 126.667969 32.410156 L 126.839844 32.652344 L 127.519531 31.175781 C 127.582031 31.042969 127.695312 30.941406 127.832031 30.890625 C 127.972656 30.839844 128.121094 30.847656 128.257812 30.910156 C 128.390625 30.976562 128.492188 31.089844 128.539062 31.234375 C 128.585938 31.375 128.574219 31.527344 128.503906 31.660156 L 128.363281 31.929688 C 128.433594 31.867188 128.519531 31.820312 128.617188 31.804688 C 128.75 31.78125 128.882812 31.8125 128.988281 31.894531 C 129.179688 32.039062 129.234375 32.296875 129.125 32.507812 L 128.800781 33.109375 C 128.863281 33.054688 128.941406 33.019531 129.027344 33.011719 C 129.136719 32.996094 129.246094 33.027344 129.335938 33.097656 C 129.503906 33.230469 129.542969 33.472656 129.421875 33.652344 C 129.328125 33.796875 129.230469 33.964844 129.128906 34.144531 C 128.941406 34.472656 128.726562 34.84375 128.457031 35.179688 C 127.882812 35.898438 128.128906 36.816406 128.210938 37.117188 C 128.214844 37.136719 128.222656 37.15625 128.226562 37.171875 C 128.910156 39.933594 129.542969 43.003906 128.375 44.5 C 127.902344 45.105469 127.152344 45.414062 126.140625 45.417969 C 126.140625 45.417969 126.140625 45.417969 126.136719 45.417969 " fill-opacity="1" fill-rule="nonzero"/><path fill="#000000" d="M 126.484375 35.800781 C 126.480469 35.800781 126.476562 35.800781 126.472656 35.800781 C 126.429688 35.792969 126.398438 35.753906 126.402344 35.710938 C 126.453125 35.277344 126.390625 34.964844 126.222656 34.78125 C 126.054688 34.609375 125.847656 34.617188 125.84375 34.617188 C 125.800781 34.621094 125.761719 34.585938 125.757812 34.542969 C 125.757812 34.496094 125.789062 34.460938 125.835938 34.457031 C 125.847656 34.457031 126.121094 34.441406 126.339844 34.671875 C 126.542969 34.890625 126.621094 35.246094 126.5625 35.726562 C 126.558594 35.769531 126.523438 35.800781 126.484375 35.800781 " fill-opacity="1" fill-rule="nonzero"/><path fill="#ffffff" d="M 115.917969 35.71875 L 112.152344 52.296875 C 112.152344 52.296875 112.207031 53.398438 111.660156 53.785156 C 111.109375 54.167969 108.410156 54.585938 108.035156 54.5 C 107.660156 54.410156 107.605469 53.996094 107.605469 53.996094 C 107.605469 53.996094 105.46875 54.539062 105.042969 54.386719 C 104.730469 54.28125 104.625 53.777344 104.921875 53.582031 C 104.921875 53.582031 104.859375 53.277344 105.226562 53.105469 C 105.589844 52.933594 109.828125 51.453125 109.828125 51.183594 C 109.828125 50.914062 110.460938 42.453125 111.835938 38.863281 C 112.859375 36.191406 115.917969 35.71875 115.917969 35.71875 " fill-opacity="1" fill-rule="nonzero"/><path fill="#000000" d="M 107.605469 53.917969 C 107.621094 53.917969 107.636719 53.921875 107.652344 53.929688 C 107.671875 53.945312 107.683594 53.964844 107.6875 53.988281 C 107.6875 54 107.738281 54.347656 108.050781 54.417969 C 108.402344 54.5 111.070312 54.097656 111.613281 53.71875 C 112.121094 53.363281 112.074219 52.3125 112.074219 52.300781 C 112.074219 52.292969 112.074219 52.285156 112.074219 52.28125 L 115.8125 35.820312 C 115.242188 35.941406 112.789062 36.589844 111.910156 38.890625 C 110.5 42.574219 109.910156 51.113281 109.910156 51.183594 C 109.910156 51.359375 109.375 51.636719 106.207031 52.816406 C 105.730469 52.996094 105.351562 53.136719 105.257812 53.179688 C 104.957031 53.320312 104.996094 53.558594 105 53.570312 C 105.003906 53.601562 104.992188 53.632812 104.964844 53.652344 C 104.863281 53.71875 104.8125 53.84375 104.832031 53.984375 C 104.851562 54.140625 104.945312 54.269531 105.070312 54.3125 C 105.398438 54.425781 107 54.066406 107.585938 53.917969 C 107.59375 53.917969 107.597656 53.917969 107.605469 53.917969 Z M 108.175781 54.589844 C 108.105469 54.589844 108.050781 54.585938 108.015625 54.578125 C 107.699219 54.503906 107.585938 54.238281 107.546875 54.09375 C 107.113281 54.203125 105.417969 54.605469 105.015625 54.464844 C 104.832031 54.402344 104.699219 54.222656 104.671875 54.007812 C 104.644531 53.820312 104.707031 53.652344 104.835938 53.546875 C 104.828125 53.40625 104.898438 53.171875 105.191406 53.035156 C 105.289062 52.988281 105.652344 52.851562 106.148438 52.667969 C 107.265625 52.25 109.574219 51.390625 109.746094 51.171875 C 109.761719 50.597656 110.40625 42.363281 111.757812 38.835938 C 112.785156 36.148438 115.875 35.644531 115.90625 35.640625 C 115.933594 35.636719 115.960938 35.644531 115.976562 35.664062 C 115.996094 35.683594 116.003906 35.710938 115.996094 35.738281 L 112.234375 52.304688 C 112.238281 52.433594 112.261719 53.460938 111.707031 53.847656 C 111.175781 54.21875 108.875 54.589844 108.175781 54.589844 " fill-opacity="1" fill-rule="nonzero"/><path fill="#ffffff" d="M 109.710938 52.875 C 109.710938 52.875 109.726562 52.996094 109.582031 53.09375 C 109.289062 53.296875 107.570312 53.300781 107.605469 53.996094 L 109.710938 52.875 " fill-opacity="1" fill-rule="nonzero"/><path fill="#000000" d="M 107.605469 54.078125 C 107.5625 54.078125 107.527344 54.042969 107.527344 54 C 107.496094 53.453125 108.347656 53.292969 108.96875 53.175781 C 109.222656 53.128906 109.457031 53.082031 109.535156 53.027344 C 109.632812 52.960938 109.628906 52.886719 109.628906 52.882812 C 109.628906 52.839844 109.660156 52.800781 109.703125 52.796875 C 109.75 52.792969 109.785156 52.824219 109.789062 52.867188 C 109.796875 52.929688 109.773438 53.0625 109.628906 53.160156 C 109.523438 53.234375 109.292969 53.277344 109 53.335938 C 108.4375 53.441406 107.664062 53.585938 107.6875 53.992188 C 107.6875 54.039062 107.65625 54.074219 107.609375 54.078125 C 107.609375 54.078125 107.605469 54.078125 107.605469 54.078125 " fill-opacity="1" fill-rule="nonzero"/><path fill="#ffffff" d="M 107.789062 52.667969 C 107.789062 52.667969 105.945312 53.265625 104.921875 53.582031 L 107.789062 52.667969 " fill-opacity="1" fill-rule="nonzero"/><path fill="#000000" d="M 104.921875 53.664062 C 104.886719 53.664062 104.855469 53.640625 104.84375 53.605469 C 104.828125 53.566406 104.855469 53.519531 104.894531 53.507812 C 105.910156 53.191406 107.746094 52.59375 107.765625 52.589844 C 107.808594 52.574219 107.851562 52.597656 107.867188 52.640625 C 107.878906 52.683594 107.855469 52.730469 107.8125 52.742188 C 107.796875 52.75 105.957031 53.347656 104.945312 53.660156 C 104.9375 53.664062 104.929688 53.664062 104.921875 53.664062 " fill-opacity="1" fill-rule="nonzero"/><path fill="#1e1e49" d="M 112.964844 47.332031 L 115.910156 35.652344 C 115.910156 35.652344 120.460938 35.5625 122.167969 35.949219 C 122.167969 35.949219 122.753906 42.964844 122.84375 44.667969 L 112.964844 47.332031 " fill-opacity="1" fill-rule="nonzero"/><path fill="#1e1e49" d="M 112.707031 51.011719 L 109.617188 50.496094 C 109.617188 50.496094 110.648438 39.671875 112.4375 37.46875 C 114.136719 35.371094 116.265625 35.644531 116.265625 35.644531 L 112.707031 51.011719 " fill-opacity="1" fill-rule="nonzero"/><path fill="#1e1e49" d="M 128.382812 36.839844 L 124.984375 37.339844 L 124.898438 39.539062 C 124.898438 39.539062 123.265625 36.105469 122.03125 35.917969 L 122.6875 44.585938 C 122.6875 44.585938 125.265625 46.078125 127.46875 45.445312 C 129.671875 44.8125 129.207031 41.875 129.039062 40.816406 C 128.871094 39.761719 128.382812 36.839844 128.382812 36.839844 " fill-opacity="1" fill-rule="nonzero"/><path fill="#ffffff" d="M 114.878906 40.003906 L 113.609375 47.109375 L 114.878906 40.003906 " fill-opacity="1" fill-rule="nonzero"/><path fill="#000000" d="M 113.609375 47.191406 C 113.605469 47.191406 113.601562 47.191406 113.59375 47.1875 C 113.550781 47.179688 113.519531 47.140625 113.53125 47.09375 L 114.800781 39.988281 C 114.808594 39.945312 114.847656 39.917969 114.894531 39.925781 C 114.9375 39.933594 114.964844 39.972656 114.957031 40.019531 L 113.6875 47.125 C 113.679688 47.164062 113.648438 47.191406 113.609375 47.191406 " fill-opacity="1" fill-rule="nonzero"/><path fill="#000000" d="M 122.84375 44.75 C 122.800781 44.75 122.765625 44.71875 122.761719 44.675781 L 122.382812 39.964844 C 122.378906 39.917969 122.410156 39.878906 122.457031 39.878906 C 122.5 39.875 122.539062 39.90625 122.542969 39.949219 L 122.921875 44.664062 C 122.925781 44.707031 122.894531 44.746094 122.847656 44.75 C 122.847656 44.75 122.84375 44.75 122.84375 44.75 " fill-opacity="1" fill-rule="nonzero"/><path fill="#ffffff" d="M 124.898438 39.648438 L 124.8125 41.601562 L 124.898438 39.648438 " fill-opacity="1" fill-rule="nonzero"/><path fill="#000000" d="M 124.816406 41.679688 C 124.8125 41.679688 124.8125 41.679688 124.8125 41.679688 C 124.765625 41.679688 124.730469 41.640625 124.734375 41.597656 L 124.816406 39.644531 C 124.816406 39.601562 124.859375 39.566406 124.898438 39.566406 C 124.945312 39.570312 124.980469 39.605469 124.976562 39.652344 L 124.894531 41.605469 C 124.894531 41.648438 124.859375 41.679688 124.816406 41.679688 " fill-opacity="1" fill-rule="nonzero"/><path fill="#000000" d="M 115.417969 35.71875 C 115.417969 35.71875 115.894531 28.699219 120.226562 28.523438 C 124.558594 28.347656 124.003906 31.953125 121.96875 31.679688 C 120.839844 31.527344 121.160156 33.191406 121.664062 34.707031 C 121.683594 34.765625 121.808594 34.890625 121.808594 34.890625 L 122.496094 35.632812 L 115.417969 35.71875 " fill-opacity="1" fill-rule="nonzero"/><path fill="#000000" d="M 123.183594 31.207031 C 123.183594 31.269531 122.023438 34.375 123.507812 36.300781 L 119.554688 36.207031 C 119.554688 36.207031 119.382812 34.105469 119.347656 33.324219 C 119.3125 32.546875 121.152344 31.195312 122.652344 30.644531 L 123.183594 31.207031 " fill-opacity="1" fill-rule="nonzero"/><path fill="#ffffff" d="M 119.207031 32.832031 L 118.0625 35.734375 C 118.0625 35.734375 118.703125 36.582031 120.140625 36.773438 C 121.578125 36.964844 120.355469 35.761719 120.355469 35.761719 L 121.046875 33.773438 L 119.207031 32.832031 " fill-opacity="1" fill-rule="nonzero"/><path fill="#ffffff" d="M 122.476562 32.601562 C 122.433594 33.039062 122.3125 33.480469 122.054688 33.84375 C 121.800781 34.207031 121.402344 34.476562 120.960938 34.519531 C 120.578125 34.550781 120.195312 34.40625 119.894531 34.167969 C 119.59375 33.929688 119.375 33.601562 119.21875 33.25 C 118.816406 33.277344 118.417969 33 118.300781 32.617188 C 118.234375 32.394531 118.261719 32.132812 118.417969 31.960938 C 118.570312 31.789062 118.867188 31.746094 119.039062 31.898438 C 119.140625 31.984375 119.1875 32.117188 119.292969 32.199219 C 119.40625 32.292969 119.578125 31.808594 119.640625 31.675781 C 119.71875 31.519531 120.160156 30.875 120.203125 30.792969 C 120.492188 30.761719 120.972656 31.253906 122.300781 31.019531 C 122.40625 31 122.476562 31.636719 122.484375 31.769531 C 122.5 32.046875 122.503906 32.324219 122.476562 32.601562 " fill-opacity="1" fill-rule="nonzero"/><path fill="#000000" d="M 119.21875 33.167969 C 119.25 33.167969 119.277344 33.1875 119.292969 33.21875 C 119.460938 33.597656 119.679688 33.894531 119.945312 34.105469 C 120.246094 34.347656 120.617188 34.46875 120.953125 34.4375 C 121.34375 34.402344 121.730469 34.164062 121.988281 33.796875 C 122.214844 33.480469 122.351562 33.074219 122.394531 32.59375 C 122.417969 32.359375 122.421875 32.097656 122.402344 31.773438 C 122.394531 31.589844 122.335938 31.203125 122.285156 31.105469 C 121.355469 31.261719 120.828125 31.066406 120.507812 30.949219 C 120.402344 30.910156 120.316406 30.878906 120.25 30.871094 C 120.21875 30.921875 120.167969 31 120.09375 31.117188 C 119.953125 31.328125 119.761719 31.617188 119.714844 31.710938 C 119.703125 31.738281 119.6875 31.773438 119.667969 31.816406 C 119.558594 32.074219 119.46875 32.261719 119.355469 32.289062 C 119.3125 32.300781 119.273438 32.289062 119.242188 32.261719 C 119.179688 32.214844 119.136719 32.148438 119.09375 32.089844 C 119.058594 32.039062 119.027344 31.992188 118.984375 31.957031 C 118.851562 31.839844 118.609375 31.867188 118.476562 32.015625 C 118.351562 32.152344 118.3125 32.378906 118.378906 32.59375 C 118.484375 32.941406 118.851562 33.191406 119.214844 33.171875 C 119.214844 33.167969 119.214844 33.167969 119.21875 33.167969 Z M 120.851562 34.601562 C 120.503906 34.601562 120.144531 34.472656 119.84375 34.230469 C 119.570312 34.015625 119.34375 33.710938 119.167969 33.332031 C 119.167969 33.332031 119.164062 33.332031 119.164062 33.332031 C 118.746094 33.332031 118.347656 33.042969 118.222656 32.640625 C 118.140625 32.371094 118.191406 32.089844 118.355469 31.90625 C 118.550781 31.695312 118.894531 31.660156 119.09375 31.835938 C 119.148438 31.886719 119.1875 31.941406 119.226562 32 C 119.257812 32.042969 119.289062 32.089844 119.324219 32.125 C 119.382812 32.066406 119.480469 31.84375 119.519531 31.753906 C 119.539062 31.707031 119.554688 31.667969 119.570312 31.640625 C 119.621094 31.539062 119.808594 31.253906 119.957031 31.027344 C 120.039062 30.902344 120.117188 30.78125 120.132812 30.753906 C 120.144531 30.730469 120.167969 30.714844 120.195312 30.710938 C 120.300781 30.699219 120.417969 30.742188 120.566406 30.796875 C 120.890625 30.917969 121.382812 31.101562 122.285156 30.9375 C 122.316406 30.933594 122.347656 30.941406 122.375 30.964844 C 122.515625 31.074219 122.5625 31.757812 122.566406 31.765625 C 122.582031 32.097656 122.578125 32.363281 122.554688 32.605469 C 122.507812 33.117188 122.363281 33.550781 122.121094 33.890625 C 121.835938 34.292969 121.40625 34.558594 120.96875 34.597656 C 120.929688 34.601562 120.890625 34.601562 120.851562 34.601562 " fill-opacity="1" fill-rule="nonzero"/><path fill="#ffffff" d="M 118.796875 32.398438 C 119.003906 32.445312 119.171875 32.625 119.207031 32.832031 L 118.796875 32.398438 " fill-opacity="1" fill-rule="nonzero"/><path fill="#000000" d="M 119.207031 32.914062 C 119.167969 32.914062 119.132812 32.886719 119.125 32.847656 C 119.097656 32.667969 118.953125 32.515625 118.777344 32.476562 C 118.734375 32.464844 118.707031 32.421875 118.71875 32.378906 C 118.726562 32.335938 118.773438 32.308594 118.816406 32.320312 C 119.050781 32.375 119.246094 32.578125 119.285156 32.820312 C 119.292969 32.863281 119.261719 32.90625 119.21875 32.914062 C 119.214844 32.914062 119.210938 32.914062 119.207031 32.914062 " fill-opacity="1" fill-rule="nonzero"/><path fill="#000000" d="M 120.265625 30.683594 C 120.253906 30.746094 118.785156 33.996094 119.777344 36.070312 L 115.417969 35.71875 C 115.417969 35.71875 116.234375 32.976562 116.328125 32.203125 C 116.421875 31.429688 118.230469 30.378906 119.800781 30.082031 L 120.265625 30.683594 " fill-opacity="1" fill-rule="nonzero"/><g clip-path="url(#c51aaf136a)"><path fill="#ffffff" d="M 61.976562 52.441406 L 58.15625 74.742188 L 72.21875 74.742188 L 76.039062 52.441406 L 61.976562 52.441406 " fill-opacity="1" fill-rule="nonzero"/><path fill="#000000" d="M 58.25 74.660156 L 72.148438 74.660156 L 75.941406 52.519531 L 62.042969 52.519531 Z M 72.21875 74.824219 L 58.15625 74.824219 C 58.128906 74.824219 58.109375 74.8125 58.09375 74.796875 C 58.078125 74.777344 58.070312 74.753906 58.074219 74.730469 L 61.894531 52.425781 C 61.902344 52.386719 61.9375 52.359375 61.976562 52.359375 L 76.039062 52.359375 C 76.0625 52.359375 76.085938 52.371094 76.101562 52.390625 C 76.117188 52.40625 76.121094 52.429688 76.117188 52.453125 L 72.296875 74.757812 C 72.289062 74.796875 72.257812 74.824219 72.21875 74.824219 " fill-opacity="1" fill-rule="nonzero"/></g><g clip-path="url(#a65f2b072f)"><path fill="#ffffff" d="M 92.863281 52.441406 L 62.011719 52.441406 L 68.359375 74.742188 L 99.207031 74.742188 L 92.863281 52.441406 " fill-opacity="1" fill-rule="nonzero"/></g><g clip-path="url(#fcea68b218)"><path fill="#000000" d="M 68.417969 74.660156 L 99.101562 74.660156 L 92.800781 52.519531 L 62.117188 52.519531 Z M 99.207031 74.824219 L 68.359375 74.824219 C 68.320312 74.824219 68.289062 74.800781 68.28125 74.765625 L 61.933594 52.464844 C 61.925781 52.4375 61.933594 52.414062 61.945312 52.390625 C 61.960938 52.371094 61.984375 52.359375 62.011719 52.359375 L 92.863281 52.359375 C 92.898438 52.359375 92.929688 52.382812 92.941406 52.417969 L 99.285156 74.722656 C 99.292969 74.746094 99.289062 74.773438 99.273438 74.792969 C 99.257812 74.8125 99.234375 74.824219 99.207031 74.824219 " fill-opacity="1" fill-rule="nonzero"/></g><path fill="#ffffff" d="M 71.632812 61.238281 L 67.40625 61.238281 L 66.203125 57.011719 L 70.429688 57.011719 L 71.632812 61.238281 " fill-opacity="1" fill-rule="nonzero"/><path fill="#000000" d="M 67.46875 61.15625 L 71.527344 61.15625 L 70.367188 57.089844 L 66.308594 57.089844 Z M 71.632812 61.316406 L 67.40625 61.316406 C 67.371094 61.316406 67.335938 61.292969 67.328125 61.257812 L 66.125 57.03125 C 66.117188 57.007812 66.125 56.980469 66.136719 56.960938 C 66.152344 56.941406 66.175781 56.929688 66.203125 56.929688 L 70.429688 56.929688 C 70.464844 56.929688 70.496094 56.953125 70.507812 56.988281 L 71.710938 61.214844 C 71.71875 61.238281 71.710938 61.265625 71.699219 61.285156 C 71.683594 61.304688 71.660156 61.316406 71.632812 61.316406 " fill-opacity="1" fill-rule="nonzero"/><path fill="#ffffff" d="M 76.84375 61.238281 L 72.617188 61.238281 L 71.414062 57.011719 L 75.640625 57.011719 L 76.84375 61.238281 " fill-opacity="1" fill-rule="nonzero"/><path fill="#000000" d="M 72.675781 61.15625 L 76.738281 61.15625 L 75.578125 57.089844 L 71.519531 57.089844 Z M 76.84375 61.316406 L 72.617188 61.316406 C 72.578125 61.316406 72.546875 61.292969 72.539062 61.257812 L 71.335938 57.03125 C 71.328125 57.007812 71.332031 56.980469 71.347656 56.960938 C 71.363281 56.941406 71.386719 56.929688 71.414062 56.929688 L 75.640625 56.929688 C 75.675781 56.929688 75.707031 56.953125 75.71875 56.988281 L 76.921875 61.214844 C 76.929688 61.238281 76.921875 61.265625 76.90625 61.285156 C 76.894531 61.304688 76.867188 61.316406 76.84375 61.316406 " fill-opacity="1" fill-rule="nonzero"/><path fill="#ffffff" d="M 82.054688 61.238281 L 77.828125 61.238281 L 76.625 57.011719 L 80.851562 57.011719 L 82.054688 61.238281 " fill-opacity="1" fill-rule="nonzero"/><path fill="#000000" d="M 77.886719 61.15625 L 81.945312 61.15625 L 80.789062 57.089844 L 76.730469 57.089844 Z M 82.054688 61.316406 L 77.828125 61.316406 C 77.789062 61.316406 77.757812 61.292969 77.75 61.257812 L 76.546875 57.03125 C 76.539062 57.007812 76.542969 56.980469 76.558594 56.960938 C 76.574219 56.941406 76.597656 56.929688 76.625 56.929688 L 80.851562 56.929688 C 80.886719 56.929688 80.917969 56.953125 80.929688 56.988281 L 82.132812 61.214844 C 82.136719 61.238281 82.132812 61.265625 82.117188 61.285156 C 82.101562 61.304688 82.078125 61.316406 82.054688 61.316406 " fill-opacity="1" fill-rule="nonzero"/><path fill="#ffffff" d="M 87.265625 61.238281 L 83.039062 61.238281 L 81.835938 57.011719 L 86.0625 57.011719 L 87.265625 61.238281 " fill-opacity="1" fill-rule="nonzero"/><path fill="#000000" d="M 83.097656 61.15625 L 87.15625 61.15625 L 86 57.089844 L 81.941406 57.089844 Z M 87.265625 61.316406 L 83.039062 61.316406 C 83 61.316406 82.96875 61.292969 82.960938 61.257812 L 81.757812 57.03125 C 81.75 57.007812 81.753906 56.980469 81.769531 56.960938 C 81.785156 56.941406 81.808594 56.929688 81.835938 56.929688 L 86.0625 56.929688 C 86.097656 56.929688 86.128906 56.953125 86.140625 56.988281 L 87.34375 61.214844 C 87.347656 61.238281 87.34375 61.265625 87.328125 61.285156 C 87.3125 61.304688 87.289062 61.316406 87.265625 61.316406 " fill-opacity="1" fill-rule="nonzero"/><path fill="#ffffff" d="M 92.476562 61.238281 L 88.246094 61.238281 L 87.046875 57.011719 L 91.273438 57.011719 L 92.476562 61.238281 " fill-opacity="1" fill-rule="nonzero"/><path fill="#000000" d="M 88.308594 61.15625 L 92.367188 61.15625 L 91.210938 57.089844 L 87.152344 57.089844 Z M 92.476562 61.316406 L 88.246094 61.316406 C 88.210938 61.316406 88.179688 61.292969 88.167969 61.257812 L 86.96875 57.03125 C 86.960938 57.007812 86.964844 56.980469 86.980469 56.960938 C 86.996094 56.941406 87.019531 56.929688 87.046875 56.929688 L 91.273438 56.929688 C 91.308594 56.929688 91.339844 56.953125 91.351562 56.988281 L 92.554688 61.214844 C 92.558594 61.238281 92.554688 61.265625 92.539062 61.285156 C 92.523438 61.304688 92.5 61.316406 92.476562 61.316406 " fill-opacity="1" fill-rule="nonzero"/><path fill="#000000" d="M 68.890625 66.164062 L 72.949219 66.164062 L 71.792969 62.097656 L 67.734375 62.097656 Z M 73.058594 66.328125 L 68.832031 66.328125 C 68.792969 66.328125 68.761719 66.300781 68.753906 66.265625 L 67.550781 62.039062 C 67.542969 62.015625 67.546875 61.988281 67.5625 61.96875 C 67.578125 61.949219 67.601562 61.9375 67.628906 61.9375 L 71.855469 61.9375 C 71.890625 61.9375 71.921875 61.960938 71.933594 61.996094 L 73.136719 66.222656 C 73.140625 66.246094 73.136719 66.273438 73.121094 66.292969 C 73.105469 66.3125 73.082031 66.328125 73.058594 66.328125 " fill-opacity="1" fill-rule="nonzero"/><path fill="#ffffff" d="M 73.058594 66.246094 L 68.832031 66.246094 L 67.628906 62.019531 L 71.855469 62.019531 L 73.058594 66.246094 " fill-opacity="1" fill-rule="nonzero"/><path fill="#000000" d="M 68.890625 66.164062 L 72.949219 66.164062 L 71.792969 62.097656 L 67.734375 62.097656 Z M 73.058594 66.328125 L 68.832031 66.328125 C 68.792969 66.328125 68.761719 66.300781 68.753906 66.265625 L 67.550781 62.039062 C 67.542969 62.015625 67.546875 61.988281 67.5625 61.96875 C 67.578125 61.949219 67.601562 61.9375 67.628906 61.9375 L 71.855469 61.9375 C 71.890625 61.9375 71.921875 61.960938 71.933594 61.996094 L 73.136719 66.222656 C 73.140625 66.246094 73.136719 66.273438 73.121094 66.292969 C 73.105469 66.3125 73.082031 66.328125 73.058594 66.328125 " fill-opacity="1" fill-rule="nonzero"/><path fill="#ffffff" d="M 78.269531 66.246094 L 74.042969 66.246094 L 72.839844 62.019531 L 77.066406 62.019531 L 78.269531 66.246094 " fill-opacity="1" fill-rule="nonzero"/><path fill="#000000" d="M 74.101562 66.164062 L 78.160156 66.164062 L 77.003906 62.097656 L 72.945312 62.097656 Z M 78.269531 66.328125 L 74.042969 66.328125 C 74.003906 66.328125 73.972656 66.300781 73.964844 66.265625 L 72.761719 62.039062 C 72.753906 62.015625 72.757812 61.988281 72.773438 61.96875 C 72.789062 61.949219 72.8125 61.9375 72.839844 61.9375 L 77.066406 61.9375 C 77.101562 61.9375 77.132812 61.960938 77.144531 61.996094 L 78.347656 66.222656 C 78.351562 66.246094 78.347656 66.273438 78.332031 66.292969 C 78.316406 66.3125 78.292969 66.328125 78.269531 66.328125 " fill-opacity="1" fill-rule="nonzero"/><path fill="#ffffff" d="M 83.480469 66.246094 L 79.25 66.246094 L 78.046875 62.019531 L 82.277344 62.019531 L 83.480469 66.246094 " fill-opacity="1" fill-rule="nonzero"/><path fill="#000000" d="M 79.3125 66.164062 L 83.371094 66.164062 L 82.214844 62.097656 L 78.15625 62.097656 Z M 83.480469 66.328125 L 79.25 66.328125 C 79.214844 66.328125 79.183594 66.300781 79.175781 66.265625 L 77.972656 62.039062 C 77.964844 62.015625 77.96875 61.988281 77.984375 61.96875 C 78 61.949219 78.023438 61.9375 78.046875 61.9375 L 82.277344 61.9375 C 82.3125 61.9375 82.34375 61.960938 82.355469 61.996094 L 83.554688 66.222656 C 83.5625 66.246094 83.558594 66.273438 83.542969 66.292969 C 83.527344 66.3125 83.503906 66.328125 83.480469 66.328125 " fill-opacity="1" fill-rule="nonzero"/><path fill="#ffffff" d="M 88.6875 66.246094 L 84.460938 66.246094 L 83.257812 62.019531 L 87.488281 62.019531 L 88.6875 66.246094 " fill-opacity="1" fill-rule="nonzero"/><path fill="#000000" d="M 84.523438 66.164062 L 88.582031 66.164062 L 87.425781 62.097656 L 83.367188 62.097656 Z M 88.6875 66.328125 L 84.460938 66.328125 C 84.425781 66.328125 84.394531 66.300781 84.382812 66.265625 L 83.179688 62.039062 C 83.175781 62.015625 83.179688 61.988281 83.195312 61.96875 C 83.210938 61.949219 83.234375 61.9375 83.257812 61.9375 L 87.488281 61.9375 C 87.523438 61.9375 87.554688 61.960938 87.5625 61.996094 L 88.765625 66.222656 C 88.773438 66.246094 88.769531 66.273438 88.753906 66.292969 C 88.738281 66.3125 88.714844 66.328125 88.6875 66.328125 " fill-opacity="1" fill-rule="nonzero"/><path fill="#ffffff" d="M 93.898438 66.246094 L 89.671875 66.246094 L 88.46875 62.019531 L 92.695312 62.019531 L 93.898438 66.246094 " fill-opacity="1" fill-rule="nonzero"/><path fill="#000000" d="M 89.734375 66.164062 L 93.792969 66.164062 L 92.636719 62.097656 L 88.578125 62.097656 Z M 93.898438 66.328125 L 89.671875 66.328125 C 89.636719 66.328125 89.605469 66.300781 89.59375 66.265625 L 88.390625 62.039062 C 88.386719 62.015625 88.390625 61.988281 88.40625 61.96875 C 88.421875 61.949219 88.445312 61.9375 88.46875 61.9375 L 92.695312 61.9375 C 92.734375 61.9375 92.765625 61.960938 92.773438 61.996094 L 93.976562 66.222656 C 93.984375 66.246094 93.980469 66.273438 93.964844 66.292969 C 93.949219 66.3125 93.925781 66.328125 93.898438 66.328125 " fill-opacity="1" fill-rule="nonzero"/><path fill="#ffffff" d="M 74.484375 71.253906 L 70.253906 71.253906 L 69.050781 67.027344 L 73.28125 67.027344 L 74.484375 71.253906 " fill-opacity="1" fill-rule="nonzero"/><path fill="#000000" d="M 70.316406 71.171875 L 74.375 71.171875 L 73.21875 67.105469 L 69.160156 67.105469 Z M 74.484375 71.335938 L 70.253906 71.335938 C 70.21875 71.335938 70.1875 71.308594 70.179688 71.273438 L 68.976562 67.046875 C 68.96875 67.023438 68.972656 66.996094 68.988281 66.976562 C 69.003906 66.957031 69.027344 66.945312 69.050781 66.945312 L 73.28125 66.945312 C 73.316406 66.945312 73.347656 66.96875 73.359375 67.003906 L 74.558594 71.230469 C 74.566406 71.253906 74.5625 71.28125 74.546875 71.300781 C 74.53125 71.320312 74.507812 71.335938 74.484375 71.335938 " fill-opacity="1" fill-rule="nonzero"/><path fill="#ffffff" d="M 74.484375 71.253906 L 70.253906 71.253906 L 69.050781 67.027344 L 73.28125 67.027344 L 74.484375 71.253906 " fill-opacity="1" fill-rule="nonzero"/><path fill="#000000" d="M 70.316406 71.171875 L 74.375 71.171875 L 73.21875 67.105469 L 69.160156 67.105469 Z M 74.484375 71.335938 L 70.253906 71.335938 C 70.21875 71.335938 70.1875 71.308594 70.179688 71.273438 L 68.976562 67.046875 C 68.96875 67.023438 68.972656 66.996094 68.988281 66.976562 C 69.003906 66.957031 69.027344 66.945312 69.050781 66.945312 L 73.28125 66.945312 C 73.316406 66.945312 73.347656 66.96875 73.359375 67.003906 L 74.558594 71.230469 C 74.566406 71.253906 74.5625 71.28125 74.546875 71.300781 C 74.53125 71.320312 74.507812 71.335938 74.484375 71.335938 " fill-opacity="1" fill-rule="nonzero"/><path fill="#ffffff" d="M 79.695312 71.253906 L 75.464844 71.253906 L 74.261719 67.027344 L 78.492188 67.027344 L 79.695312 71.253906 " fill-opacity="1" fill-rule="nonzero"/><path fill="#000000" d="M 75.527344 71.171875 L 79.585938 71.171875 L 78.429688 67.105469 L 74.371094 67.105469 Z M 79.695312 71.335938 L 75.464844 71.335938 C 75.429688 71.335938 75.398438 71.308594 75.386719 71.273438 L 74.1875 67.046875 C 74.179688 67.023438 74.183594 66.996094 74.199219 66.976562 C 74.214844 66.957031 74.238281 66.945312 74.261719 66.945312 L 78.492188 66.945312 C 78.527344 66.945312 78.558594 66.96875 78.566406 67.003906 L 79.769531 71.230469 C 79.777344 71.253906 79.773438 71.28125 79.757812 71.300781 C 79.742188 71.320312 79.71875 71.335938 79.695312 71.335938 " fill-opacity="1" fill-rule="nonzero"/><path fill="#e2eaff" d="M 84.902344 71.253906 L 80.675781 71.253906 L 79.472656 67.027344 L 83.699219 67.027344 L 84.902344 71.253906 " fill-opacity="1" fill-rule="nonzero"/><g clip-path="url(#2781f6ca55)"><path fill="#000000" d="M 58.15625 74.824219 L 43.152344 74.824219 C 43.109375 74.824219 43.074219 74.789062 43.074219 74.742188 C 43.074219 74.699219 43.109375 74.660156 43.152344 74.660156 L 58.15625 74.660156 C 58.199219 74.660156 58.234375 74.699219 58.234375 74.742188 C 58.234375 74.789062 58.199219 74.824219 58.15625 74.824219 " fill-opacity="1" fill-rule="nonzero"/></g><g clip-path="url(#ac0684b17c)"><path fill="#ffffff" d="M 136.976562 16.992188 C 136.996094 16.589844 137.050781 16.105469 137.164062 15.5625 C 137.242188 15.199219 137.34375 14.675781 137.609375 14.089844 C 138.214844 12.742188 139.0625 12.347656 139.050781 10.699219 C 139.046875 10.371094 139.039062 8.796875 137.992188 8.074219 C 137.859375 7.980469 137.386719 7.65625 136.917969 7.792969 C 136.464844 7.925781 136.246094 8.421875 135.789062 9.851562 C 135.3125 11.351562 135.074219 12.101562 134.996094 12.566406 C 134.84375 13.496094 134.894531 14.222656 134.925781 14.851562 C 134.9375 15.09375 134.984375 15.976562 135.226562 17.160156 C 135.46875 18.355469 135.683594 19.402344 136 19.417969 C 136.117188 19.425781 136.464844 19.292969 136.976562 16.992188 " fill-opacity="1" fill-rule="nonzero"/><path fill="#000000" d="M 136.976562 16.992188 Z M 137.15625 7.839844 C 137.082031 7.839844 137.007812 7.847656 136.941406 7.867188 C 136.527344 7.988281 136.320312 8.453125 135.867188 9.878906 C 135.390625 11.371094 135.152344 12.121094 135.078125 12.578125 C 134.933594 13.441406 134.96875 14.125 135 14.726562 L 135.007812 14.847656 C 135.039062 15.546875 135.148438 16.363281 135.304688 17.144531 C 135.511719 18.167969 135.75 19.324219 136.003906 19.335938 C 136.074219 19.335938 136.398438 19.210938 136.894531 16.980469 C 136.921875 16.5 136.984375 16.015625 137.085938 15.546875 L 137.101562 15.480469 C 137.175781 15.113281 137.28125 14.613281 137.535156 14.054688 C 137.742188 13.589844 137.976562 13.246094 138.203125 12.910156 C 138.617188 12.292969 138.976562 11.761719 138.96875 10.699219 C 138.960938 9.5 138.597656 8.589844 137.945312 8.140625 C 137.65625 7.941406 137.390625 7.839844 137.15625 7.839844 Z M 136.019531 19.5 C 136.007812 19.5 136 19.5 135.996094 19.5 C 135.632812 19.480469 135.445312 18.648438 135.148438 17.175781 C 134.988281 16.390625 134.878906 15.5625 134.84375 14.855469 L 134.839844 14.734375 C 134.808594 14.125 134.773438 13.433594 134.917969 12.554688 C 134.996094 12.082031 135.234375 11.332031 135.714844 9.828125 C 136.15625 8.441406 136.386719 7.863281 136.894531 7.714844 C 137.230469 7.617188 137.617188 7.714844 138.039062 8.007812 C 138.734375 8.488281 139.121094 9.445312 139.132812 10.699219 C 139.136719 11.8125 138.765625 12.363281 138.335938 13 C 138.113281 13.328125 137.886719 13.667969 137.679688 14.121094 C 137.4375 14.664062 137.332031 15.15625 137.257812 15.511719 L 137.242188 15.578125 C 137.144531 16.042969 137.082031 16.519531 137.058594 16.996094 C 137.058594 17 137.054688 17.003906 137.054688 17.007812 C 136.527344 19.382812 136.160156 19.5 136.019531 19.5 " fill-opacity="1" fill-rule="nonzero"/></g><path fill="#000000" d="M 136.058594 17.167969 C 136.015625 17.167969 135.984375 17.140625 135.976562 17.101562 C 135.910156 16.640625 135.847656 15.523438 135.851562 14.925781 C 135.855469 14.136719 136.03125 13.472656 136.175781 12.941406 C 136.191406 12.878906 136.207031 12.816406 136.222656 12.757812 C 136.316406 12.394531 136.394531 12.164062 136.492188 11.871094 C 136.558594 11.671875 136.636719 11.441406 136.734375 11.117188 C 136.949219 10.414062 137.136719 9.6875 137.296875 8.953125 C 137.308594 8.910156 137.351562 8.882812 137.394531 8.894531 C 137.4375 8.902344 137.464844 8.945312 137.457031 8.988281 C 137.296875 9.722656 137.105469 10.457031 136.890625 11.164062 C 136.789062 11.488281 136.714844 11.71875 136.644531 11.925781 C 136.550781 12.210938 136.472656 12.4375 136.378906 12.796875 C 136.363281 12.859375 136.347656 12.917969 136.332031 12.984375 C 136.191406 13.507812 136.019531 14.15625 136.011719 14.929688 C 136.007812 15.519531 136.070312 16.621094 136.136719 17.078125 C 136.144531 17.121094 136.113281 17.164062 136.070312 17.167969 C 136.066406 17.167969 136.0625 17.167969 136.058594 17.167969 " fill-opacity="1" fill-rule="nonzero"/><path fill="#ffffff" d="M 136.285156 18.007812 C 136.027344 14.644531 133.085938 12.769531 132.875 12.660156 C 132.875 12.660156 132.496094 12.46875 132.496094 12.46875 C 131.976562 12.257812 131.019531 12.054688 130.542969 12.496094 C 130.210938 12.800781 130.21875 13.308594 130.222656 13.5 C 130.273438 15.292969 133.582031 16.226562 134.699219 19.101562 C 134.976562 19.808594 135.042969 20.441406 135.0625 20.835938 C 135.179688 21.070312 135.339844 21.308594 135.507812 21.296875 C 135.953125 21.269531 136.40625 19.542969 136.285156 18.007812 " fill-opacity="1" fill-rule="nonzero"/><path fill="#000000" d="M 135.144531 20.816406 C 135.324219 21.175781 135.449219 21.222656 135.503906 21.21875 C 135.546875 21.214844 135.597656 21.183594 135.648438 21.121094 C 135.996094 20.726562 136.304688 19.308594 136.207031 18.011719 C 135.941406 14.570312 132.871094 12.75 132.839844 12.734375 C 132.839844 12.730469 132.460938 12.542969 132.460938 12.542969 C 132.023438 12.363281 131.058594 12.128906 130.597656 12.554688 C 130.285156 12.839844 130.300781 13.335938 130.304688 13.496094 C 130.328125 14.335938 131.121094 15 132.042969 15.773438 C 133.050781 16.621094 134.195312 17.582031 134.777344 19.074219 C 134.988281 19.621094 135.113281 20.207031 135.144531 20.816406 Z M 135.496094 21.378906 C 135.328125 21.378906 135.160156 21.214844 134.992188 20.875 C 134.984375 20.863281 134.984375 20.851562 134.980469 20.839844 C 134.953125 20.242188 134.835938 19.667969 134.625 19.132812 C 134.058594 17.679688 132.933594 16.730469 131.9375 15.894531 C 130.988281 15.097656 130.167969 14.410156 130.144531 13.5 C 130.136719 13.320312 130.121094 12.773438 130.488281 12.4375 C 131.007812 11.957031 132.015625 12.183594 132.527344 12.394531 L 132.914062 12.589844 C 132.945312 12.605469 136.09375 14.472656 136.367188 18 C 136.460938 19.242188 136.183594 20.753906 135.769531 21.226562 C 135.6875 21.324219 135.601562 21.375 135.515625 21.378906 C 135.507812 21.378906 135.503906 21.378906 135.496094 21.378906 " fill-opacity="1" fill-rule="nonzero"/><path fill="#000000" d="M 135.726562 19.238281 C 135.691406 19.238281 135.65625 19.214844 135.648438 19.175781 C 135.019531 16.742188 133.628906 14.695312 131.730469 13.417969 C 131.640625 13.359375 131.628906 13.347656 131.617188 13.324219 C 131.59375 13.285156 131.613281 13.234375 131.652344 13.214844 C 131.683594 13.199219 131.722656 13.207031 131.75 13.234375 C 131.757812 13.242188 131.789062 13.261719 131.820312 13.285156 C 133.75 14.582031 135.164062 16.664062 135.804688 19.136719 C 135.816406 19.179688 135.789062 19.222656 135.746094 19.234375 C 135.738281 19.238281 135.734375 19.238281 135.726562 19.238281 " fill-opacity="1" fill-rule="nonzero"/><path fill="#ffffff" d="M 140.835938 15.070312 C 140.761719 15.019531 140.421875 14.808594 139.71875 14.972656 C 138.28125 15.300781 137.15625 16.753906 137.046875 16.894531 C 135.222656 19.300781 134.890625 22.390625 135.269531 22.527344 C 135.351562 22.558594 135.671875 22.171875 136.304688 21.394531 C 137.863281 19.472656 137.839844 19.492188 137.957031 19.355469 C 139.765625 17.203125 141.40625 16.960938 141.324219 15.898438 C 141.296875 15.542969 141.066406 15.226562 140.835938 15.070312 " fill-opacity="1" fill-rule="nonzero"/><path fill="#000000" d="M 140.207031 14.992188 C 140.074219 14.992188 139.917969 15.007812 139.734375 15.050781 C 138.339844 15.371094 137.234375 16.785156 137.109375 16.945312 C 135.511719 19.054688 135.074219 21.726562 135.246094 22.355469 C 135.261719 22.40625 135.277344 22.433594 135.285156 22.445312 C 135.402344 22.375 135.792969 21.894531 136.242188 21.34375 C 137.144531 20.230469 137.515625 19.769531 137.691406 19.550781 C 137.820312 19.390625 137.847656 19.363281 137.894531 19.304688 C 138.734375 18.304688 139.554688 17.703125 140.152344 17.265625 C 140.855469 16.746094 141.285156 16.429688 141.242188 15.902344 C 141.21875 15.566406 140.996094 15.277344 140.789062 15.136719 C 140.710938 15.085938 140.527344 14.992188 140.207031 14.992188 Z M 135.28125 22.613281 C 135.265625 22.613281 135.253906 22.609375 135.242188 22.605469 C 135.175781 22.582031 135.125 22.515625 135.09375 22.410156 C 134.902344 21.746094 135.308594 19.054688 136.984375 16.847656 C 137.109375 16.683594 138.25 15.226562 139.699219 14.890625 C 140.382812 14.734375 140.75 14.917969 140.878906 15.003906 C 141.121094 15.164062 141.375 15.5 141.40625 15.890625 C 141.453125 16.507812 140.972656 16.859375 140.246094 17.394531 C 139.621094 17.851562 138.847656 18.421875 138.019531 19.410156 C 137.96875 19.464844 137.945312 19.496094 137.816406 19.652344 C 137.640625 19.871094 137.269531 20.332031 136.367188 21.445312 C 135.601562 22.386719 135.40625 22.613281 135.28125 22.613281 " fill-opacity="1" fill-rule="nonzero"/><path fill="#000000" d="M 135.769531 21.054688 C 135.757812 21.054688 135.75 21.054688 135.742188 21.050781 C 135.699219 21.039062 135.675781 20.992188 135.691406 20.949219 C 136.125 19.628906 137.042969 17.792969 138.941406 16.570312 C 139.417969 16.261719 139.9375 16.007812 140.480469 15.816406 C 140.523438 15.800781 140.566406 15.824219 140.582031 15.867188 C 140.597656 15.90625 140.574219 15.953125 140.535156 15.96875 C 140.003906 16.15625 139.496094 16.40625 139.03125 16.707031 C 137.171875 17.90625 136.273438 19.703125 135.84375 21 C 135.832031 21.035156 135.800781 21.054688 135.769531 21.054688 " fill-opacity="1" fill-rule="nonzero"/><path fill="#e2eaff" d="M 138.542969 20.835938 L 132.800781 20.835938 L 133.191406 25.226562 L 138.152344 25.226562 L 138.542969 20.835938 " fill-opacity="1" fill-rule="nonzero"/><path fill="#000000" d="M 137.738281 30.164062 L 130.421875 30.164062 C 130.378906 30.164062 130.339844 30.125 130.339844 30.082031 L 130.339844 25.226562 C 130.339844 25.183594 130.378906 25.148438 130.421875 25.148438 L 143.714844 25.148438 C 143.761719 25.148438 143.796875 25.183594 143.796875 25.226562 C 143.796875 25.273438 143.761719 25.308594 143.714844 25.308594 L 130.503906 25.308594 L 130.503906 30 L 137.738281 30 C 137.78125 30 137.820312 30.039062 137.820312 30.082031 C 137.820312 30.125 137.78125 30.164062 137.738281 30.164062 " fill-opacity="1" fill-rule="nonzero"/></svg>